<svg width="89" height="93" viewBox="0 0 89 93" fill="none" xmlns="http://www.w3.org/2000/svg">
<rect width="89" height="93" rx="44.5" fill="#32A9E6"/>
<path d="M20.1853 46.4173C20.1853 46.4173 40.96 37.3438 48.1651 34.1489C50.927 32.8709 60.2936 28.7814 60.2936 28.7814C60.2936 28.7814 64.6167 26.9923 64.2564 31.3373C64.1363 33.1265 63.1757 39.3885 62.215 46.1617C60.774 55.7464 59.2129 66.2257 59.2129 66.2257C59.2129 66.2257 58.9727 69.165 56.9313 69.6762C54.8898 70.1874 51.5274 67.8871 50.927 67.3759C50.4467 66.9925 41.9207 61.2417 38.7984 58.4301C37.9579 57.6634 36.9972 56.1298 38.9185 54.3407C43.2416 50.1234 48.4052 44.8837 51.5274 41.561C52.9685 40.0275 54.4095 36.4492 48.4052 40.7943C39.8792 47.0563 31.4733 52.9349 31.4733 52.9349C31.4733 52.9349 29.5519 54.2129 25.9494 53.0627C22.3468 51.9125 18.1438 50.379 18.1438 50.379C18.1438 50.379 15.2618 48.462 20.1853 46.4173Z" fill="white"/>
</svg>
