<svg width="90" height="93" viewBox="0 0 90 93" fill="none" xmlns="http://www.w3.org/2000/svg">
<rect width="90" height="93" rx="45" fill="#665CAC"/>
<path d="M63.363 25.7046C62.1174 24.5261 57.0976 20.7579 45.9175 20.7036C45.9175 20.7036 32.7265 19.8817 26.2961 25.976C22.717 29.6744 21.4564 35.0864 21.3289 41.8009C21.1938 48.5155 21.0212 61.084 32.7566 64.4955H32.7641L32.7566 69.6981C32.7566 69.6981 32.6815 71.8071 34.0246 72.2335C35.6454 72.753 36.5983 71.1558 38.1515 69.4268C38.9994 68.4808 40.1774 67.0852 41.0628 66.023C49.084 66.7208 55.2593 65.1235 55.9571 64.8909C57.5779 64.3482 66.747 63.1309 68.2327 50.5624C69.7709 37.6063 67.4824 29.403 63.363 25.7046ZM64.7211 49.632C63.4605 60.1303 56.0246 60.7971 54.659 61.2468C54.0738 61.4406 48.6563 62.8363 41.8432 62.371C41.8432 62.371 36.7634 68.6979 35.1802 70.3494C34.9326 70.6053 34.6399 70.7138 34.4448 70.6596C34.1747 70.5898 34.0997 70.2564 34.0997 69.7679C34.1072 69.0701 34.1447 61.1227 34.1447 61.1227C34.1372 61.1227 34.1372 61.1227 34.1447 61.1227C24.2252 58.2772 24.8029 47.5696 24.9155 41.9638C25.028 36.358 26.0485 31.7679 29.0724 28.682C34.5124 23.5957 45.715 24.3555 45.715 24.3555C55.1768 24.402 59.7088 27.3406 60.7593 28.3253C64.2409 31.419 66.0192 38.8081 64.7211 49.632Z" fill="white"/>
<path d="M50.5151 41.523C50.3951 38.9566 49.1345 37.6152 46.7334 37.4834" stroke="white" stroke-width="0.844187" stroke-linecap="round" stroke-linejoin="round"/>
<path d="M53.7577 42.6504C53.8103 40.2623 53.1275 38.2696 51.7018 36.6647C50.2762 35.0597 48.3028 34.168 45.7666 33.9819" stroke="white" stroke-width="0.844187" stroke-linecap="round" stroke-linejoin="round"/>
<path d="M57.079 43.9869C57.049 39.8388 55.8484 36.5823 53.4848 34.1942C51.1213 31.8139 48.1724 30.6043 44.6533 30.5811" stroke="white" stroke-width="0.844187" stroke-linecap="round" stroke-linejoin="round"/>
<path d="M46.8606 50.2706C46.8606 50.2706 47.7535 50.3482 48.2262 49.7357L49.1566 48.5261C49.6069 47.9213 50.6948 47.5414 51.7603 48.1539C52.3531 48.5028 53.4186 49.1774 54.0789 49.6814C54.7842 50.2164 56.2324 51.4647 56.2324 51.4647C56.9227 52.0617 57.0802 52.9456 56.615 53.876C56.615 53.8838 56.6075 53.8915 56.6075 53.8915C56.1273 54.7677 55.482 55.5973 54.6641 56.3649C54.6566 56.3727 54.6566 56.3727 54.6491 56.3804C53.9813 56.9542 53.321 57.2876 52.6757 57.3651C52.6007 57.3806 52.5032 57.3884 52.3906 57.3806C52.1055 57.3806 51.8279 57.3419 51.5502 57.2488L51.5277 57.2178C50.5298 56.9309 48.8715 56.2021 46.1028 54.6281C44.3019 53.6047 42.8088 52.5579 41.5482 51.519C40.8804 50.9762 40.1976 50.3559 39.4998 49.6426C39.4772 49.6194 39.4547 49.5961 39.4322 49.5728C39.4097 49.5496 39.3872 49.5263 39.3647 49.503C39.3422 49.4798 39.3197 49.4565 39.2972 49.4333C39.2747 49.41 39.2521 49.3867 39.2296 49.3635C38.5393 48.6424 37.939 47.9368 37.4138 47.2468C36.4083 45.9442 35.3954 44.3935 34.4049 42.5404C32.8817 39.6793 32.1764 37.9658 31.8988 36.9346L31.8688 36.9113C31.7787 36.6244 31.7337 36.3376 31.7412 36.0429C31.7337 35.9266 31.7412 35.8258 31.7562 35.7483C31.8313 35.0815 32.1539 34.3992 32.7092 33.7091C32.7167 33.7014 32.7167 33.7014 32.7242 33.6936C33.467 32.8485 34.2624 32.1817 35.1178 31.6854C35.1253 31.6854 35.1328 31.6777 35.1328 31.6777C36.0332 31.197 36.8886 31.3598 37.4663 32.0731C37.4738 32.0809 38.6744 33.5696 39.1921 34.2984C39.6798 34.9884 40.3401 36.0817 40.6703 36.6942C41.2631 37.7952 40.8954 38.9195 40.3101 39.3847L39.1396 40.3461C38.5468 40.8424 38.6219 41.7573 38.6219 41.7573C38.6219 41.7573 40.3626 48.5571 46.8606 50.2706Z" fill="white"/>
</svg>
