<svg width="89" height="93" viewBox="0 0 89 93" fill="none" xmlns="http://www.w3.org/2000/svg">
<rect width="89" height="93" rx="44.5" fill="#01D363"/>
<path d="M69.5704 45.1807C69.5704 59.2765 58.5511 70.7031 44.9557 70.7031C40.6397 70.7031 36.585 69.5504 33.0573 67.5274L19.4296 72.0526L23.8726 58.359C21.6313 54.5133 20.3405 50.0027 20.3405 45.1807C20.3405 31.0848 31.3609 19.6582 44.9557 19.6582C58.5522 19.6582 69.5704 31.0848 69.5704 45.1807ZM44.9557 23.7228C33.5437 23.7228 24.2609 33.3489 24.2609 45.1807C24.2609 49.8758 25.7256 54.2239 28.2031 57.7611L25.6175 65.7303L33.5704 63.0891C36.8379 65.331 40.7523 66.6385 44.9563 66.6385C56.3667 66.6385 65.6511 57.0136 65.6511 45.1818C65.6511 33.35 56.3672 23.7228 44.9557 23.7228ZM57.3856 51.0587C57.2335 50.7985 56.8319 50.6413 56.2291 50.3287C55.6251 50.0161 52.6579 48.5019 52.1064 48.2941C51.5531 48.0856 51.1498 47.9809 50.7481 48.6067C50.3464 49.2331 49.1898 50.6413 48.8372 51.0587C48.4851 51.4773 48.1335 51.5297 47.5296 51.2165C46.9268 50.9039 44.983 50.2425 42.6782 48.1118C40.8848 46.4538 39.6737 44.407 39.3216 43.78C38.97 43.1542 39.2848 42.8159 39.5862 42.5045C39.8581 42.2239 40.1901 41.7739 40.4915 41.4089C40.794 41.0433 40.8943 40.783 41.0943 40.365C41.2966 39.9476 41.1957 39.5826 41.0442 39.2688C40.8938 38.9562 39.6859 35.8778 39.1834 34.6249C38.6809 33.3733 38.1789 33.5817 37.8263 33.5817C37.4747 33.5817 37.0719 33.5293 36.6697 33.5293C36.2674 33.5293 35.6134 33.6859 35.0602 34.3117C34.5075 34.9381 32.9492 36.4518 32.9492 39.5296C32.9492 42.6081 35.1103 45.5824 35.4128 45.9992C35.7142 46.416 39.5856 52.9385 45.7195 55.4436C51.854 57.9474 51.854 57.112 52.9604 57.0072C54.0658 56.903 56.5293 55.4942 57.0341 54.0341C57.5355 52.5718 57.5355 51.3195 57.3856 51.0587Z" fill="white"/>
</svg>
