<svg width="1353" height="1129" viewBox="0 0 1353 1129" fill="none" xmlns="http://www.w3.org/2000/svg">
<path opacity="0.03" d="M1392.18 590.346C1392.26 593.705 1392.31 597.069 1392.33 600.44L1390.83 600.451C1390.84 602.132 1390.85 603.815 1390.85 605.5C1390.85 607.184 1390.84 608.867 1390.83 610.549L1392.33 610.56C1392.31 613.93 1392.26 617.295 1392.18 620.654L1390.68 620.621C1390.61 623.973 1390.51 627.319 1390.39 630.658L1391.89 630.713C1391.77 634.06 1391.62 637.4 1391.45 640.735L1389.95 640.659C1389.78 644.021 1389.59 647.376 1389.37 650.725L1390.86 650.823C1390.64 654.181 1390.4 657.531 1390.13 660.875L1388.63 660.755C1388.37 664.091 1388.07 667.421 1387.76 670.744L1389.25 670.886C1388.93 674.232 1388.59 677.57 1388.22 680.902L1386.73 680.738C1386.36 684.078 1385.97 687.411 1385.55 690.737L1387.04 690.923C1386.63 694.256 1386.18 697.581 1385.72 700.899L1384.23 700.691C1383.77 704.003 1383.28 707.307 1382.77 710.604L1384.25 710.834C1383.74 714.164 1383.19 717.486 1382.63 720.801L1381.15 720.549C1380.59 723.855 1380 727.154 1379.39 730.445L1380.86 730.719C1380.25 734.017 1379.61 737.307 1378.95 740.588L1377.48 740.292C1376.82 743.581 1376.14 746.861 1375.43 750.133L1376.89 750.451C1376.18 753.739 1375.44 757.018 1374.68 760.288L1373.22 759.949C1372.47 763.212 1371.68 766.466 1370.88 769.711L1372.34 770.073C1371.53 773.33 1370.7 776.578 1369.84 779.816L1368.39 779.434C1367.54 782.681 1366.65 785.918 1365.75 789.146L1367.2 789.551C1366.29 792.786 1365.36 796.012 1364.41 799.228L1362.97 798.802C1362.02 802.011 1361.05 805.21 1360.05 808.399L1361.49 808.846C1360.48 812.057 1359.46 815.258 1358.41 818.449L1356.99 817.98C1355.94 821.167 1354.87 824.342 1353.78 827.508L1355.19 827.997C1354.1 831.17 1352.98 834.332 1351.84 837.483L1350.43 836.973C1349.29 840.124 1348.13 843.265 1346.94 846.395L1348.35 846.927C1347.16 850.071 1345.94 853.204 1344.71 856.326L1343.31 855.774C1342.08 858.889 1340.82 861.993 1339.55 865.086L1340.93 865.659C1339.65 868.76 1338.35 871.85 1337.02 874.929L1335.65 874.336C1334.32 877.418 1332.97 880.488 1331.6 883.546L1332.97 884.159C1331.6 887.225 1330.2 890.278 1328.78 893.319L1327.43 892.686C1326.01 895.72 1324.58 898.743 1323.12 901.754L1324.47 902.407C1323 905.432 1321.52 908.445 1320.01 911.445L1318.67 910.772C1317.17 913.767 1315.64 916.75 1314.09 919.72L1315.42 920.413C1313.87 923.39 1312.3 926.354 1310.71 929.305L1309.39 928.592C1307.8 931.541 1306.18 934.476 1304.55 937.399L1305.86 938.131C1304.22 941.063 1302.56 943.983 1300.88 946.889L1299.58 946.138C1297.9 949.037 1296.2 951.924 1294.48 954.797L1295.77 955.567C1294.05 958.447 1292.31 961.314 1290.54 964.167L1289.27 963.379C1287.5 966.23 1285.72 969.067 1283.92 971.891L1285.18 972.698C1283.37 975.528 1281.54 978.344 1279.7 981.145L1278.44 980.32C1276.6 983.115 1274.74 985.897 1272.85 988.664L1274.09 989.508C1272.2 992.284 1270.29 995.046 1268.36 997.794L1267.14 996.932C1265.21 999.673 1263.27 1002.4 1261.3 1005.11L1262.52 1005.99C1260.55 1008.71 1258.56 1011.42 1256.55 1014.1L1255.35 1013.21C1253.34 1015.89 1251.32 1018.56 1249.28 1021.21L1250.47 1022.13C1248.42 1024.79 1246.35 1027.44 1244.27 1030.07L1243.09 1029.13C1241.01 1031.76 1238.91 1034.37 1236.79 1036.96L1237.95 1037.91C1235.83 1040.51 1233.68 1043.09 1231.52 1045.66L1230.38 1044.7C1228.22 1047.26 1226.04 1049.81 1223.85 1052.34L1224.98 1053.32C1222.78 1055.86 1220.57 1058.38 1218.33 1060.88L1217.21 1059.88C1214.98 1062.38 1212.73 1064.87 1210.47 1067.33L1211.57 1068.35C1209.3 1070.82 1207.01 1073.28 1204.71 1075.71L1203.62 1074.68C1201.31 1077.12 1199 1079.53 1196.66 1081.93L1197.73 1082.98C1195.39 1085.39 1193.03 1087.77 1190.66 1090.15L1189.6 1089.08C1187.23 1091.45 1184.84 1093.8 1182.43 1096.13L1183.48 1097.21C1181.07 1099.54 1178.64 1101.86 1176.2 1104.16L1175.17 1103.07C1172.73 1105.37 1170.27 1107.65 1167.8 1109.91L1168.81 1111.02C1166.34 1113.28 1163.84 1115.53 1161.33 1117.76L1160.34 1116.64C1157.84 1118.86 1155.32 1121.07 1152.78 1123.26L1153.76 1124.39C1151.22 1126.59 1148.66 1128.76 1146.09 1130.92L1145.13 1129.77C1142.56 1131.92 1139.98 1134.06 1137.38 1136.17L1138.32 1137.34C1135.72 1139.45 1133.1 1141.55 1130.47 1143.64L1129.54 1142.46C1126.91 1144.53 1124.27 1146.59 1121.61 1148.63L1122.53 1149.82C1119.86 1151.87 1117.18 1153.89 1114.49 1155.9L1113.59 1154.69C1110.91 1156.69 1108.21 1158.67 1105.49 1160.64L1106.37 1161.85C1103.65 1163.82 1100.92 1165.76 1098.17 1167.69L1097.31 1166.46C1094.56 1168.38 1091.8 1170.28 1089.03 1172.17L1089.87 1173.41C1087.1 1175.29 1084.31 1177.16 1081.5 1179.01L1080.68 1177.76C1077.88 1179.6 1075.07 1181.42 1072.25 1183.22L1073.06 1184.48C1070.23 1186.29 1067.38 1188.07 1064.53 1189.84L1063.74 1188.56C1060.89 1190.32 1058.02 1192.07 1055.14 1193.79L1055.91 1195.07C1053.04 1196.79 1050.15 1198.5 1047.24 1200.18L1046.49 1198.88C1043.59 1200.55 1040.68 1202.21 1037.76 1203.85L1038.49 1205.16C1035.56 1206.8 1032.61 1208.42 1029.66 1210.02L1028.94 1208.7C1026 1210.29 1023.05 1211.86 1020.08 1213.41L1020.77 1214.74C1017.8 1216.29 1014.81 1217.82 1011.81 1219.33L1011.14 1217.99C1008.15 1219.5 1005.14 1220.99 1002.13 1222.45L1002.78 1223.8C999.765 1225.27 996.735 1226.71 993.693 1228.14L993.057 1226.78C990.028 1228.2 986.986 1229.6 983.933 1230.97L984.55 1232.34C981.49 1233.72 978.418 1235.08 975.335 1236.41L974.739 1235.04C971.664 1236.37 968.577 1237.68 965.479 1238.97L966.056 1240.35C962.963 1241.64 959.859 1242.91 956.745 1244.15L956.188 1242.76C953.08 1244 949.961 1245.22 946.83 1246.42L947.366 1247.82C944.229 1249.02 941.081 1250.2 937.922 1251.36L937.406 1249.95C934.267 1251.1 931.116 1252.22 927.955 1253.33L928.451 1254.75C925.287 1255.85 922.113 1256.94 918.928 1258L918.453 1256.58C915.275 1257.64 912.088 1258.68 908.889 1259.69L909.344 1261.12C906.146 1262.14 902.937 1263.13 899.719 1264.11L899.286 1262.67C896.087 1263.64 892.878 1264.58 889.66 1265.5L890.073 1266.94C886.847 1267.87 883.612 1268.77 880.368 1269.64L879.976 1268.2C876.739 1269.07 873.492 1269.93 870.236 1270.76L870.607 1272.21C867.365 1273.04 864.113 1273.84 860.853 1274.62L860.503 1273.17C857.251 1273.95 853.99 1274.7 850.72 1275.44L851.049 1276.9C847.772 1277.64 844.486 1278.35 841.192 1279.04L840.884 1277.57C837.61 1278.26 834.328 1278.92 831.037 1279.56L831.323 1281.04C828.037 1281.67 824.743 1282.29 821.441 1282.88L821.175 1281.41C817.88 1282 814.576 1282.57 811.265 1283.12L811.509 1284.6C808.193 1285.14 804.868 1285.67 801.536 1286.17L801.313 1284.68C798.015 1285.18 794.708 1285.65 791.395 1286.1L791.596 1287.59C788.276 1288.04 784.948 1288.46 781.612 1288.87L781.432 1287.38C778.104 1287.78 774.768 1288.16 771.425 1288.52L771.584 1290.01C768.253 1290.36 764.915 1290.69 761.57 1291L761.432 1289.51C758.108 1289.81 754.776 1290.1 751.438 1290.36L751.555 1291.85C748.21 1292.11 744.858 1292.35 741.5 1292.56L741.405 1291.07C738.056 1291.28 734.7 1291.47 731.339 1291.64L731.412 1293.13C728.077 1293.3 724.736 1293.44 721.389 1293.56L721.336 1292.06C717.996 1292.18 714.65 1292.27 711.298 1292.34L711.329 1293.84C707.97 1293.91 704.605 1293.96 701.235 1293.98L701.224 1292.48C699.542 1292.49 697.859 1292.5 696.174 1292.5C694.49 1292.5 692.807 1292.49 691.125 1292.48L691.114 1293.98C687.744 1293.96 684.379 1293.91 681.02 1293.84L681.051 1292.34C677.699 1292.27 674.353 1292.18 671.013 1292.06L670.96 1293.56C667.613 1293.44 664.271 1293.3 660.936 1293.13L661.01 1291.64C657.649 1291.47 654.293 1291.28 650.944 1291.07L650.849 1292.56C647.491 1292.35 644.139 1292.11 640.794 1291.85L640.911 1290.36C637.573 1290.1 634.242 1289.81 630.917 1289.51L630.779 1291C627.434 1290.69 624.096 1290.36 620.765 1290.01L620.924 1288.52C617.581 1288.16 614.245 1287.78 610.917 1287.38L610.737 1288.87C607.401 1288.46 604.073 1288.04 600.753 1287.59L600.954 1286.1C597.641 1285.65 594.334 1285.18 591.036 1284.68L590.813 1286.17C587.481 1285.67 584.156 1285.14 580.84 1284.6L581.084 1283.12C577.773 1282.57 574.469 1282 571.174 1281.41L570.909 1282.88C567.606 1282.29 564.312 1281.67 561.026 1281.04L561.312 1279.56C558.021 1278.92 554.739 1278.26 551.465 1277.57L551.157 1279.04C547.863 1278.35 544.577 1277.64 541.3 1276.9L541.629 1275.44C538.359 1274.7 535.098 1273.95 531.846 1273.17L531.496 1274.62C528.236 1273.84 524.984 1273.04 521.742 1272.21L522.113 1270.76C518.857 1269.93 515.61 1269.07 512.373 1268.2L511.981 1269.64C508.737 1268.77 505.502 1267.87 502.276 1266.94L502.689 1265.5C499.471 1264.58 496.262 1263.64 493.063 1262.67L492.63 1264.11C489.411 1263.13 486.203 1262.14 483.005 1261.12L483.459 1259.69C480.261 1258.68 477.073 1257.64 473.896 1256.58L473.421 1258C470.236 1256.94 467.062 1255.85 463.898 1254.75L464.394 1253.33C461.233 1252.22 458.082 1251.1 454.942 1249.95L454.427 1251.36C451.268 1250.2 448.119 1249.02 444.982 1247.82L445.519 1246.42C442.388 1245.22 439.269 1244 436.161 1242.76L435.604 1244.15C432.489 1242.91 429.386 1241.64 426.293 1240.35L426.87 1238.97C423.772 1237.68 420.685 1236.37 417.61 1235.04L417.014 1236.41C413.93 1235.08 410.859 1233.72 407.799 1232.34L408.415 1230.97C405.362 1229.6 402.321 1228.2 399.292 1226.78L398.656 1228.14C395.614 1226.71 392.584 1225.27 389.566 1223.8L390.222 1222.45C387.205 1220.99 384.201 1219.5 381.209 1217.99L380.534 1219.33C377.536 1217.82 374.55 1216.29 371.577 1214.74L372.271 1213.41C369.303 1211.86 366.347 1210.29 363.404 1208.7L362.691 1210.01C359.734 1208.42 356.79 1206.8 353.859 1205.16L354.591 1203.85C351.667 1202.21 348.755 1200.55 345.858 1198.88L345.106 1200.18C342.202 1198.5 339.311 1196.79 336.434 1195.07L337.204 1193.79C334.326 1192.07 331.462 1190.32 328.612 1188.56L327.823 1189.84C324.966 1188.07 322.122 1186.29 319.292 1184.48L320.099 1183.22C317.275 1181.42 314.466 1179.6 311.671 1177.76L310.846 1179.01C308.041 1177.16 305.251 1175.29 302.475 1173.41L303.318 1172.17C300.545 1170.28 297.787 1168.38 295.043 1166.46L294.182 1167.69C291.433 1165.76 288.698 1163.82 285.978 1161.85L286.857 1160.63C284.142 1158.67 281.441 1156.69 278.756 1154.69L277.861 1155.9C275.166 1153.89 272.487 1151.87 269.823 1149.82L270.736 1148.63C268.077 1146.59 265.435 1144.53 262.807 1142.46L261.877 1143.63C259.244 1141.55 256.627 1139.45 254.025 1137.34L254.972 1136.17C252.373 1134.06 249.79 1131.92 247.222 1129.77L246.259 1130.92C243.685 1128.76 241.128 1126.59 238.587 1124.39L239.567 1123.26C237.032 1121.07 234.513 1118.86 232.01 1116.64L231.014 1117.76C228.504 1115.53 226.011 1113.28 223.534 1111.02L224.547 1109.91C222.075 1107.65 219.619 1105.37 217.181 1103.07L216.152 1104.16C213.709 1101.86 211.282 1099.54 208.872 1097.21L209.916 1096.13C207.511 1093.8 205.123 1091.45 202.752 1089.08L201.693 1090.15C199.316 1087.77 196.957 1085.39 194.615 1082.98L195.69 1081.93C193.353 1079.53 191.034 1077.12 188.732 1074.68L187.642 1075.71C185.336 1073.27 183.047 1070.82 180.776 1068.35L181.881 1067.33C179.614 1064.87 177.366 1062.38 175.136 1059.88L174.017 1060.88C171.782 1058.38 169.565 1055.86 167.366 1053.32L168.5 1052.34C166.306 1049.81 164.13 1047.26 161.973 1044.7L160.826 1045.66C158.664 1043.09 156.522 1040.51 154.398 1037.91L155.56 1036.96C153.44 1034.37 151.34 1031.76 149.259 1029.13L148.083 1030.07C145.997 1027.44 143.93 1024.79 141.882 1022.13L143.071 1021.21C141.028 1018.56 139.004 1015.89 137 1013.21L135.798 1014.1C133.79 1011.42 131.802 1008.71 129.833 1005.99L131.047 1005.11C129.083 1002.4 127.137 999.673 125.212 996.931L123.984 997.793C122.055 995.046 120.145 992.284 118.255 989.508L119.495 988.663C117.611 985.896 115.748 983.115 113.904 980.319L112.652 981.145C110.804 978.344 108.976 975.528 107.169 972.698L108.433 971.891C106.629 969.067 104.846 966.229 103.083 963.378L101.808 964.167C100.043 961.314 98.2998 958.447 96.5767 955.567L97.8639 954.797C96.1453 951.924 94.4471 949.037 92.7698 946.138L91.4714 946.889C89.7903 943.983 88.13 941.063 86.4908 938.131L87.8001 937.399C86.1664 934.476 84.5536 931.541 82.9619 928.592L81.642 929.305C80.0487 926.354 78.4766 923.39 76.9257 920.413L78.256 919.72C76.7086 916.75 75.1824 913.767 73.6777 910.772L72.3373 911.445C70.8301 908.445 69.3443 905.432 67.8802 902.407L69.2303 901.754C67.7731 898.743 66.3374 895.72 64.9235 892.686L63.5638 893.319C62.1467 890.278 60.7514 887.225 59.378 884.159L60.7469 883.546C59.3766 880.488 58.0281 877.418 56.7018 874.336L55.324 874.929C53.999 871.85 52.6959 868.76 51.4151 865.659L52.8015 865.086C51.5243 861.993 50.2692 858.889 49.0364 855.774L47.6417 856.326C46.4062 853.204 45.1931 850.071 44.0025 846.927L45.4053 846.396C44.2201 843.265 43.0573 840.125 41.9171 836.973L40.5066 837.483C39.3665 834.332 38.2489 831.17 37.1541 827.997L38.572 827.508C37.4797 824.343 36.41 821.167 35.3632 817.981L33.9382 818.449C32.8899 815.258 31.8646 812.057 30.8623 808.846L32.2942 808.399C31.2987 805.21 30.3261 802.011 29.3765 798.802L27.9382 799.228C26.9865 796.012 26.0579 792.786 25.1526 789.551L26.5971 789.147C25.6938 785.918 24.8138 782.681 23.9571 779.434L22.5067 779.816C21.6523 776.578 20.8211 773.33 20.0133 770.073L21.4692 769.712C20.6644 766.466 19.8829 763.212 19.1249 759.949L17.6638 760.289C16.9042 757.018 16.168 753.739 15.4557 750.451L16.9216 750.133C16.2127 746.862 15.5274 743.581 14.8658 740.292L13.3953 740.588C12.7352 737.307 12.0987 734.017 11.486 730.719L12.9607 730.445C12.3494 727.155 11.7617 723.856 11.1979 720.549L9.71927 720.801C9.15425 717.487 8.61318 714.164 8.09623 710.834L9.57848 710.604C9.06672 707.308 8.57866 704.003 8.11447 700.691L6.62899 700.899C6.16396 697.581 5.72284 694.256 5.3058 690.923L6.79419 690.737C6.37807 687.411 5.98599 684.078 5.61811 680.738L4.12713 680.903C3.76017 677.571 3.41724 674.232 3.09853 670.886L4.59177 670.744C4.27525 667.421 3.98266 664.091 3.71417 660.755L2.219 660.875C1.94992 657.531 1.705 654.181 1.48441 650.824L2.98118 650.725C2.76111 647.376 2.56531 644.021 2.39395 640.659L0.89589 640.735C0.725928 637.401 0.579953 634.06 0.458133 630.713L1.95714 630.658C1.83558 627.319 1.73813 623.973 1.66495 620.622L0.165304 620.654C0.0919609 617.295 0.0429401 613.931 0.0184089 610.56L1.51837 610.549C1.50613 608.868 1.5 607.185 1.5 605.5C1.5 603.816 1.50613 602.133 1.51837 600.451L0.0184075 600.44C0.0429379 597.07 0.0919577 593.705 0.1653 590.346L1.66494 590.379C1.73813 587.027 1.83558 583.681 1.95713 580.342L0.458124 580.287C0.579944 576.94 0.725918 573.6 0.895881 570.265L2.39394 570.341C2.5653 566.979 2.7611 563.624 2.98116 560.275L1.48438 560.177C1.70498 556.819 1.9499 553.469 2.21897 550.125L3.71414 550.245C3.98263 546.909 4.27522 543.579 4.59174 540.256L3.0985 540.114C3.41721 536.768 3.76013 533.43 4.12708 530.098L5.61807 530.262C5.98595 526.922 6.37803 523.589 6.79415 520.263L5.30576 520.077C5.72279 516.744 6.16391 513.419 6.62894 510.101L8.11442 510.309C8.57861 506.997 9.06667 503.693 9.57843 500.396L8.09618 500.166C8.61313 496.836 9.15421 493.514 9.71923 490.199L11.1979 490.451C11.7617 487.145 12.3493 483.846 12.9607 480.555L11.4859 480.281C12.0987 476.983 12.7351 473.693 13.3952 470.412L14.8657 470.708C15.5274 467.419 16.2127 464.139 16.9216 460.867L15.4556 460.549C16.168 457.261 16.9041 453.982 17.6638 450.712L19.1249 451.051C19.8829 447.788 20.6644 444.534 21.4692 441.289L20.0133 440.927C20.8211 437.67 21.6523 434.422 22.5067 431.184L23.9571 431.566C24.8137 428.319 25.6938 425.082 26.5971 421.854L25.1526 421.449C26.0579 418.214 26.9865 414.988 27.9382 411.772L29.3765 412.198C30.3261 408.989 31.2987 405.79 32.2942 402.601L30.8623 402.154C31.8645 398.943 32.8899 395.742 33.9381 392.551L35.3632 393.02C36.41 389.833 37.4796 386.658 38.572 383.492L37.1541 383.003C38.2489 379.83 39.3664 376.668 40.5066 373.517L41.9171 374.027C43.0573 370.876 44.2201 367.735 45.4053 364.605L44.0025 364.073C45.193 360.929 46.4061 357.796 47.6416 354.674L49.0364 355.226C50.2692 352.111 51.5243 349.007 52.8015 345.914L51.4151 345.341C52.6959 342.24 53.999 339.15 55.324 336.071L56.7018 336.664C58.0281 333.582 59.3766 330.512 60.7469 327.454L59.378 326.841C60.7514 323.775 62.1467 320.722 63.5638 317.681L64.9235 318.314C66.3375 315.28 67.7732 312.257 69.2304 309.246L67.8802 308.593C69.3443 305.568 70.8301 302.555 72.3373 299.555L73.6777 300.228C75.1824 297.233 76.7086 294.25 78.2561 291.28L76.9258 290.587C78.4766 287.61 80.0488 284.646 81.6421 281.695L82.962 282.408C84.5537 279.459 86.1665 276.524 87.8002 273.601L86.4909 272.869C88.1302 269.937 89.7904 267.017 91.4714 264.111L92.7699 264.862C94.4472 261.962 96.1454 259.076 97.8641 256.203L96.5768 255.433C98.2999 252.553 100.044 249.686 101.808 246.833L103.083 247.621C104.846 244.77 106.63 241.933 108.433 239.109L107.169 238.302C108.976 235.472 110.804 232.656 112.652 229.855L113.904 230.68C115.748 227.885 117.612 225.103 119.495 222.336L118.255 221.492C120.145 218.716 122.055 215.954 123.985 213.206L125.212 214.068C127.138 211.326 129.083 208.599 131.048 205.886L129.833 205.007C131.802 202.288 133.79 199.584 135.798 196.895L137 197.793C139.005 195.109 141.028 192.439 143.071 189.785L141.883 188.87C143.93 186.21 145.998 183.564 148.084 180.934L149.259 181.866C151.34 179.241 153.441 176.632 155.56 174.039L154.398 173.09C156.522 170.49 158.665 167.906 160.826 165.338L161.974 166.304C164.131 163.741 166.306 161.193 168.5 158.662L167.367 157.68C169.565 155.143 171.782 152.622 174.017 150.117L175.136 151.116C177.366 148.617 179.615 146.134 181.881 143.667L180.776 142.652C183.047 140.18 185.336 137.725 187.643 135.286L188.733 136.317C191.034 133.883 193.353 131.466 195.69 129.066L194.615 128.02C196.957 125.614 199.317 123.226 201.693 120.854L202.753 121.916C205.123 119.55 207.511 117.201 209.916 114.87L208.872 113.793C211.282 111.457 213.709 109.138 216.153 106.836L217.181 107.928C219.62 105.632 222.075 103.352 224.547 101.091L223.535 99.9839C226.011 97.7182 228.504 95.47 231.014 93.2396L232.01 94.3608C234.513 92.1365 237.033 89.9299 239.568 87.7412L238.588 86.6058C241.129 84.4124 243.686 82.237 246.259 80.0797L247.223 81.2292C249.79 79.0768 252.373 76.9425 254.973 74.8266L254.026 73.6633C256.627 71.5455 259.245 69.4459 261.878 67.3649L262.808 68.5417C265.435 66.4651 268.078 64.407 270.736 62.3676L269.823 61.1775C272.487 59.1337 275.166 57.1085 277.861 55.1023L278.757 56.3055C281.442 54.3064 284.142 52.3262 286.857 50.3649L285.979 49.149C288.698 47.1843 291.433 45.2386 294.183 43.3122L295.043 44.5407C297.787 42.6184 300.545 40.7153 303.318 38.8316L302.475 37.5908C305.251 35.7051 308.041 33.8387 310.846 31.9919L311.671 33.2447C314.466 31.4042 317.276 29.5831 320.099 27.7817L319.293 26.5172C322.122 24.7119 324.966 22.9264 327.823 21.1608L328.612 22.4369C331.462 20.6758 334.326 18.9346 337.204 17.2134L336.434 15.9261C339.311 14.2053 342.202 12.5046 345.106 10.824L345.858 12.1224C348.756 10.4454 351.667 8.78869 354.592 7.15231L353.859 5.84329C356.79 4.20338 359.734 2.58388 362.691 0.984978L363.405 2.30444C366.347 0.713287 369.303 -0.85743 372.271 -2.40749L371.577 -3.73713C374.55 -5.2896 377.536 -6.8214 380.534 -8.33234L381.209 -6.99282C384.201 -8.50052 387.205 -9.9874 390.222 -11.4533L389.566 -12.8024C392.584 -14.2688 395.614 -15.7142 398.656 -17.1384L399.292 -15.7799C402.321 -17.1981 405.362 -18.5953 408.415 -19.9713L407.799 -21.3389C410.859 -22.7178 413.93 -24.0755 417.014 -25.4118L417.61 -24.0354C420.685 -25.3681 423.772 -26.6793 426.87 -27.969L426.293 -29.3538C429.386 -30.6411 432.489 -31.907 435.604 -33.1512L436.161 -31.7582C439.269 -32.9998 442.388 -34.2197 445.519 -35.4179L444.982 -36.8188C448.119 -38.0195 451.268 -39.1984 454.426 -40.3553L454.942 -38.9468C458.082 -40.0967 461.233 -41.2248 464.394 -42.331L463.898 -43.7468C467.062 -44.8539 470.236 -45.9389 473.421 -47.0019L473.896 -45.579C477.073 -46.6397 480.261 -47.6782 483.459 -48.6944L483.005 -50.124C486.203 -51.1402 489.411 -52.1342 492.629 -53.1057L493.063 -51.6697C496.262 -52.6355 499.471 -53.579 502.689 -54.5001L502.276 -55.9422C505.501 -56.8654 508.736 -57.7661 511.981 -58.6441L512.373 -57.1962C515.61 -58.0723 518.857 -58.9259 522.113 -59.7567L521.742 -61.2102C524.984 -62.0374 528.235 -62.8421 531.496 -63.6241L531.845 -62.1655C535.098 -62.9456 538.359 -63.7031 541.629 -64.4377L541.3 -65.9013C544.577 -66.6375 547.862 -67.3509 551.157 -68.0412L551.464 -66.5731C554.738 -67.2592 558.021 -67.9224 561.312 -68.5627L561.026 -70.0351C564.312 -70.6745 567.606 -71.2909 570.908 -71.8844L571.174 -70.408C574.469 -71.0002 577.772 -71.5693 581.084 -72.1153L580.84 -73.5954C584.156 -74.1422 587.481 -74.6659 590.813 -75.1662L591.036 -73.6828C594.334 -74.1781 597.64 -74.6504 600.954 -75.0996L600.752 -76.586C604.073 -77.0361 607.401 -77.4631 610.737 -77.8668L610.917 -76.3777C614.245 -76.7805 617.581 -77.16 620.923 -77.5161L620.764 -79.0076C624.096 -79.3625 627.434 -79.6941 630.779 -80.0023L630.917 -78.5086C634.241 -78.8149 637.573 -79.0981 640.91 -79.3579L640.794 -80.8534C644.139 -81.1137 647.491 -81.3507 650.849 -81.5641L650.944 -80.0672C654.293 -80.28 657.648 -80.4694 661.01 -80.6351L660.936 -82.1333C664.271 -82.2977 667.613 -82.439 670.96 -82.5568L671.013 -81.0577C674.353 -81.1753 677.699 -81.2696 681.051 -81.3404L681.019 -82.8401C684.379 -82.911 687.743 -82.9585 691.114 -82.9822L691.125 -81.4822C692.807 -81.4941 694.49 -81.5 696.174 -81.5C697.859 -81.5 699.542 -81.4941 701.224 -81.4822L701.234 -82.9822C704.605 -82.9585 707.97 -82.911 711.329 -82.8401L711.298 -81.3404C714.65 -81.2696 717.996 -81.1753 721.336 -81.0577L721.389 -82.5568C724.736 -82.439 728.077 -82.2977 731.412 -82.1333L731.338 -80.6351C734.7 -80.4694 738.056 -80.28 741.404 -80.0672L741.5 -81.5642C744.858 -81.3507 748.209 -81.1137 751.554 -80.8534L751.438 -79.3579C754.776 -79.0981 758.107 -78.815 761.432 -78.5087L761.569 -80.0023C764.914 -79.6941 768.253 -79.3625 771.584 -79.0077L771.425 -77.5161C774.768 -77.16 778.103 -76.7805 781.432 -76.3777L781.612 -77.8668C784.947 -77.4632 788.275 -77.0362 791.596 -76.586L791.395 -75.0996C794.708 -74.6504 798.014 -74.1781 801.313 -73.6829L801.535 -75.1663C804.868 -74.6659 808.192 -74.1423 811.509 -73.5954L811.265 -72.1154C814.576 -71.5694 817.88 -71.0002 821.175 -70.4081L821.44 -71.8844C824.743 -71.291 828.037 -70.6745 831.323 -70.0352L831.036 -68.5628C834.327 -67.9225 837.61 -67.2592 840.884 -66.5731L841.192 -68.0412C844.486 -67.3509 847.772 -66.6375 851.049 -65.9013L850.72 -64.4378C853.99 -63.7031 857.251 -62.9457 860.503 -62.1656L860.853 -63.6242C864.113 -62.8422 867.365 -62.0374 870.607 -61.2102L870.236 -59.7568C873.492 -58.926 876.739 -58.0724 879.976 -57.1962L880.368 -58.6442C883.612 -57.7661 886.847 -56.8654 890.072 -55.9423L889.66 -54.5002C892.878 -53.5791 896.087 -52.6355 899.286 -51.6698L899.719 -53.1057C902.937 -52.1342 906.146 -51.1402 909.344 -50.124L908.889 -48.6945C912.087 -47.6782 915.275 -46.6397 918.453 -45.5791L918.928 -47.0019C922.112 -45.939 925.287 -44.8539 928.45 -43.7468L927.955 -42.331C931.116 -41.2249 934.267 -40.0968 937.406 -38.9468L937.922 -40.3554C941.081 -39.1984 944.229 -38.0195 947.366 -36.8188L946.83 -35.4179C949.961 -34.2197 953.08 -32.9998 956.188 -31.7582L956.745 -33.1512C959.859 -31.907 962.963 -30.6411 966.056 -29.3538L965.479 -27.969C968.577 -26.6793 971.664 -25.3681 974.739 -24.0354L975.335 -25.4117C978.418 -24.0755 981.49 -22.7178 984.55 -21.3389L983.933 -19.9713C986.987 -18.5953 990.028 -17.1981 993.057 -15.7799L993.693 -17.1384C996.735 -15.7141 999.765 -14.2688 1002.78 -12.8024L1002.13 -11.4533C1005.14 -9.98737 1008.15 -8.50047 1011.14 -6.99276L1011.81 -8.33228C1014.81 -6.82133 1017.8 -5.28953 1020.77 -3.73706L1020.08 -2.40744C1023.05 -0.857353 1026 0.713364 1028.94 2.30453L1029.66 0.985085C1032.61 2.58399 1035.56 4.20351 1038.49 5.84342L1037.76 7.15243C1040.68 8.78881 1043.59 10.4456 1046.49 12.1225L1047.24 10.8242C1050.15 12.5047 1053.04 14.2055 1055.91 15.9262L1055.14 17.2135C1058.02 18.9347 1060.89 20.6759 1063.74 22.437L1064.53 21.1609C1067.38 22.9265 1070.23 24.7121 1073.06 26.5173L1072.25 27.7819C1075.07 29.5833 1077.88 31.4043 1080.68 33.2449L1081.5 31.9921C1084.31 33.8389 1087.1 35.7053 1089.87 37.591L1089.03 38.8318C1091.8 40.7155 1094.56 42.6186 1097.31 44.5409L1098.17 43.3124C1100.92 45.2389 1103.65 47.1845 1106.37 49.1492L1105.49 50.3651C1108.21 52.3264 1110.91 54.3067 1113.59 56.3057L1114.49 55.1026C1117.18 57.1088 1119.86 59.1339 1122.53 61.1778L1121.61 62.3679C1124.27 64.4073 1126.91 66.4654 1129.54 68.542L1130.47 67.3652C1133.1 69.4462 1135.72 71.5458 1138.32 73.6636L1137.38 74.8269C1139.98 76.9429 1142.56 79.0771 1145.13 81.2295L1146.09 80.08C1148.66 82.2373 1151.22 84.4128 1153.76 86.6062L1152.78 87.7416C1155.32 89.9303 1157.84 92.1369 1160.34 94.3612L1161.34 93.24C1163.84 95.4704 1166.34 97.7186 1168.81 99.9844L1167.8 101.091C1170.27 103.353 1172.73 105.632 1175.17 107.929L1176.2 106.837C1178.64 109.138 1181.07 111.457 1183.48 113.793L1182.43 114.87C1184.84 117.202 1187.23 119.551 1189.6 121.916L1190.66 120.854C1193.03 123.226 1195.39 125.615 1197.73 128.02L1196.66 129.066C1199 131.467 1201.32 133.884 1203.62 136.317L1204.71 135.286C1207.01 137.725 1209.3 140.181 1211.57 142.652L1210.47 143.667C1212.73 146.134 1214.98 148.617 1217.21 151.116L1218.33 150.118C1220.57 152.622 1222.78 155.143 1224.98 157.68L1223.85 158.662C1226.04 161.194 1228.22 163.741 1230.38 166.304L1231.52 165.339C1233.68 167.907 1235.83 170.49 1237.95 173.09L1236.79 174.039C1238.91 176.633 1241.01 179.242 1243.09 181.866L1244.27 180.934C1246.35 183.564 1248.42 186.21 1250.47 188.871L1249.28 189.786C1251.32 192.44 1253.34 195.109 1255.35 197.793L1256.55 196.896C1258.56 199.585 1260.55 202.288 1262.52 205.007L1261.3 205.887C1263.27 208.599 1265.21 211.327 1267.14 214.069L1268.36 213.207C1270.29 215.954 1272.2 218.716 1274.09 221.492L1272.85 222.337C1274.74 225.104 1276.6 227.885 1278.44 230.681L1279.7 229.855C1281.54 232.657 1283.37 235.472 1285.18 238.302L1283.92 239.109C1285.72 241.933 1287.5 244.77 1289.27 247.622L1290.54 246.833C1292.31 249.686 1294.05 252.553 1295.77 255.433L1294.48 256.203C1296.2 259.076 1297.9 261.963 1299.58 264.862L1300.88 264.111C1302.56 267.017 1304.22 269.937 1305.86 272.869L1304.55 273.601C1306.18 276.524 1307.8 279.459 1309.39 282.408L1310.71 281.695C1312.3 284.646 1313.87 287.611 1315.42 290.587L1314.09 291.28C1315.64 294.25 1317.17 297.233 1318.67 300.228L1320.01 299.555C1321.52 302.555 1323 305.568 1324.47 308.593L1323.12 309.246C1324.58 312.257 1326.01 315.28 1327.43 318.314L1328.78 317.681C1330.2 320.722 1331.6 323.775 1332.97 326.84L1331.6 327.454C1332.97 330.512 1334.32 333.582 1335.65 336.664L1337.02 336.071C1338.35 339.15 1339.65 342.24 1340.93 345.341L1339.55 345.914C1340.82 349.007 1342.08 352.111 1343.31 355.226L1344.71 354.674C1345.94 357.796 1347.16 360.929 1348.35 364.073L1346.94 364.605C1348.13 367.735 1349.29 370.875 1350.43 374.027L1351.84 373.517C1352.98 376.668 1354.1 379.83 1355.19 383.003L1353.78 383.492C1354.87 386.657 1355.94 389.833 1356.99 393.019L1358.41 392.551C1359.46 395.742 1360.48 398.943 1361.49 402.154L1360.05 402.601C1361.05 405.79 1362.02 408.989 1362.97 412.198L1364.41 411.772C1365.36 414.988 1366.29 418.214 1367.2 421.449L1365.75 421.853C1366.65 425.082 1367.54 428.319 1368.39 431.566L1369.84 431.184C1370.7 434.422 1371.53 437.67 1372.34 440.927L1370.88 441.288C1371.68 444.534 1372.47 447.788 1373.22 451.051L1374.68 450.711C1375.44 453.982 1376.18 457.261 1376.89 460.549L1375.43 460.867C1376.14 464.138 1376.82 467.419 1377.48 470.708L1378.95 470.412C1379.61 473.693 1380.25 476.983 1380.86 480.281L1379.39 480.555C1380 483.845 1380.59 487.144 1381.15 490.451L1382.63 490.199C1383.19 493.513 1383.74 496.836 1384.25 500.166L1382.77 500.396C1383.28 503.692 1383.77 506.997 1384.23 510.309L1385.72 510.101C1386.18 513.418 1386.63 516.744 1387.04 520.077L1385.55 520.263C1385.97 523.589 1386.36 526.922 1386.73 530.262L1388.22 530.097C1388.59 533.429 1388.93 536.768 1389.25 540.114L1387.76 540.256C1388.07 543.579 1388.37 546.909 1388.63 550.245L1390.13 550.125C1390.4 553.469 1390.64 556.819 1390.86 560.176L1389.37 560.275C1389.59 563.624 1389.78 566.979 1389.95 570.341L1391.45 570.265C1391.62 573.599 1391.77 576.94 1391.89 580.287L1390.39 580.342C1390.51 583.681 1390.61 587.027 1390.68 590.378L1392.18 590.346Z" stroke="white" stroke-width="3" stroke-dasharray="10 10"/>
<path opacity="0.1" d="M1342.25 613.745C1342.36 617.058 1342.43 620.38 1342.46 623.711L1340.96 623.728C1340.98 625.388 1340.99 627.05 1340.99 628.714C1340.99 630.378 1340.98 632.04 1340.96 633.701L1342.46 633.717C1342.43 637.048 1342.36 640.37 1342.25 643.683L1340.75 643.634C1340.64 646.942 1340.5 650.241 1340.32 653.53L1341.81 653.612C1341.63 656.942 1341.41 660.262 1341.16 663.573L1339.66 663.458C1339.41 666.758 1339.12 670.047 1338.8 673.327L1340.29 673.474C1339.96 676.79 1339.6 680.096 1339.2 683.391L1337.71 683.21C1337.31 686.499 1336.87 689.777 1336.4 693.044L1337.89 693.258C1337.41 696.551 1336.9 699.831 1336.36 703.101L1334.88 702.854C1334.34 706.125 1333.75 709.384 1333.14 712.631L1334.61 712.91C1333.99 716.174 1333.34 719.426 1332.65 722.664L1331.18 722.352C1330.49 725.597 1329.77 728.83 1329.01 732.049L1330.47 732.394C1329.7 735.624 1328.91 738.841 1328.07 742.044L1326.62 741.667C1325.79 744.879 1324.92 748.078 1324.01 751.262L1325.46 751.671C1324.55 754.867 1323.61 758.047 1322.63 761.214L1321.2 760.772C1320.22 763.94 1319.21 767.093 1318.17 770.232L1319.59 770.705C1318.54 773.858 1317.46 776.996 1316.34 780.118L1314.93 779.613C1313.82 782.732 1312.67 785.835 1311.49 788.922L1312.89 789.458C1311.7 792.563 1310.48 795.651 1309.22 798.722L1307.83 798.155C1306.58 801.219 1305.29 804.266 1303.98 807.297L1305.35 807.895C1304.03 810.944 1302.67 813.975 1301.28 816.989L1299.92 816.361C1298.53 819.365 1297.11 822.352 1295.66 825.321L1297.01 825.979C1295.55 828.967 1294.06 831.936 1292.53 834.886L1291.2 834.198C1289.68 837.138 1288.13 840.06 1286.55 842.963L1287.87 843.681C1286.28 846.599 1284.66 849.499 1283.01 852.378L1281.71 851.632C1280.06 854.503 1278.38 857.355 1276.67 860.187L1277.96 860.962C1276.24 863.806 1274.5 866.63 1272.72 869.434L1271.45 868.631C1269.68 871.428 1267.88 874.204 1266.05 876.958L1267.3 877.789C1265.46 880.554 1263.59 883.299 1261.69 886.022L1260.46 885.164C1258.57 887.88 1256.65 890.575 1254.7 893.247L1255.91 894.132C1253.95 896.814 1251.96 899.474 1249.95 902.111L1248.76 901.201C1246.75 903.831 1244.71 906.439 1242.64 909.025L1243.82 909.961C1241.74 912.555 1239.64 915.126 1237.51 917.673L1236.36 916.712C1234.24 919.252 1232.09 921.768 1229.92 924.261L1231.05 925.248C1228.86 927.749 1226.65 930.227 1224.41 932.68L1223.31 931.669C1221.08 934.114 1218.82 936.534 1216.54 938.931L1217.62 939.965C1215.33 942.369 1213.02 944.748 1210.67 947.102L1209.61 946.044C1207.28 948.39 1204.92 950.71 1202.53 953.005L1203.57 954.086C1201.18 956.388 1198.76 958.665 1196.32 960.915L1195.31 959.812C1192.87 962.055 1190.41 964.271 1187.93 966.461L1188.93 967.586C1186.44 969.781 1183.92 971.951 1181.39 974.094L1180.42 972.948C1177.89 975.083 1175.34 977.191 1172.76 979.272L1173.71 980.439C1171.12 982.524 1168.52 984.583 1165.89 986.613L1164.98 985.427C1162.36 987.451 1159.72 989.447 1157.05 991.415L1157.94 992.622C1155.28 994.593 1152.59 996.536 1149.87 998.451L1149.01 997.226C1146.31 999.135 1143.58 1001.01 1140.83 1002.87L1141.67 1004.11C1138.92 1005.96 1136.15 1007.79 1133.36 1009.59L1132.55 1008.32C1129.76 1010.11 1126.96 1011.87 1124.14 1013.6L1124.92 1014.88C1122.09 1016.62 1119.24 1018.32 1116.37 1019.99L1115.62 1018.7C1112.76 1020.37 1109.88 1022 1106.99 1023.61L1107.72 1024.92C1104.81 1026.53 1101.89 1028.11 1098.95 1029.66L1098.25 1028.33C1095.33 1029.87 1092.39 1031.38 1089.42 1032.86L1090.09 1034.2C1087.12 1035.69 1084.13 1037.14 1081.13 1038.56L1080.49 1037.2C1077.5 1038.62 1074.5 1040 1071.47 1041.35L1072.09 1042.72C1069.05 1044.07 1066 1045.39 1062.94 1046.68L1062.36 1045.3C1059.31 1046.58 1056.25 1047.83 1053.17 1049.04L1053.72 1050.44C1050.64 1051.66 1047.53 1052.84 1044.42 1054L1043.89 1052.59C1040.8 1053.74 1037.68 1054.86 1034.55 1055.94L1035.04 1057.36C1031.91 1058.44 1028.76 1059.49 1025.59 1060.51L1025.14 1059.08C1021.99 1060.09 1018.83 1061.07 1015.65 1062.02L1016.08 1063.46C1012.9 1064.4 1009.71 1065.32 1006.51 1066.2L1006.11 1064.75C1002.92 1065.63 999.715 1066.47 996.497 1067.28L996.863 1068.73C993.652 1069.54 990.429 1070.31 987.192 1071.05L986.858 1069.59C983.632 1070.33 980.393 1071.03 977.141 1071.7L977.443 1073.17C974.202 1073.84 970.948 1074.47 967.682 1075.07L967.411 1073.59C964.159 1074.19 960.896 1074.75 957.62 1075.28L957.859 1076.76C954.588 1077.29 951.306 1077.78 948.012 1078.24L947.806 1076.75C944.536 1077.21 941.254 1077.63 937.963 1078.02L938.137 1079.51C934.842 1079.89 931.536 1080.24 928.219 1080.56L928.076 1079.07C924.795 1079.38 921.504 1079.66 918.202 1079.91L918.314 1081.4C915.002 1081.65 911.68 1081.86 908.349 1082.04L908.27 1080.54C904.981 1080.71 901.682 1080.85 898.375 1080.96L898.422 1082.46C895.108 1082.56 891.786 1082.63 888.455 1082.67L888.439 1081.17C886.779 1081.18 885.117 1081.19 883.452 1081.19C881.788 1081.19 880.125 1081.18 878.465 1081.17L878.449 1082.67C875.118 1082.63 871.796 1082.56 868.482 1082.46L868.529 1080.96C865.222 1080.85 861.923 1080.71 858.634 1080.54L858.555 1082.04C855.224 1081.86 851.902 1081.65 848.59 1081.4L848.702 1079.91C845.4 1079.66 842.109 1079.38 838.828 1079.07L838.685 1080.56C835.368 1080.24 832.062 1079.89 828.767 1079.51L828.942 1078.02C825.65 1077.63 822.369 1077.21 819.099 1076.75L818.892 1078.24C815.598 1077.78 812.316 1077.29 809.045 1076.76L809.284 1075.28C806.008 1074.75 802.745 1074.19 799.493 1073.59L799.222 1075.07C795.956 1074.47 792.702 1073.84 789.461 1073.17L789.763 1071.7C786.512 1071.03 783.272 1070.33 780.046 1069.59L779.712 1071.05C776.475 1070.31 773.252 1069.54 770.042 1068.73L770.407 1067.28C767.189 1066.47 763.984 1065.63 760.793 1064.75L760.396 1066.2C757.192 1065.32 754.002 1064.4 750.826 1063.46L751.254 1062.02C748.078 1061.07 744.916 1060.09 741.769 1059.08L741.31 1060.51C738.145 1059.49 734.995 1058.44 731.861 1057.36L732.351 1055.94C729.222 1054.86 726.108 1053.74 723.01 1052.59L722.489 1054C719.37 1052.84 716.267 1051.66 713.18 1050.44L713.732 1049.04C710.654 1047.83 707.593 1046.58 704.549 1045.3L703.968 1046.68C700.901 1045.39 697.851 1044.07 694.819 1042.71L695.43 1041.35C692.408 1040 689.404 1038.62 686.417 1037.2L685.776 1038.56C682.769 1037.14 679.781 1035.69 676.811 1034.2L677.481 1032.86C674.519 1031.38 671.576 1029.87 668.651 1028.33L667.952 1029.66C665.012 1028.11 662.091 1026.53 659.189 1024.92L659.917 1023.61C657.021 1022 654.144 1020.37 651.288 1018.7L650.532 1019.99C647.663 1018.32 644.814 1016.62 641.985 1014.88L642.769 1013.6C639.945 1011.87 637.142 1010.11 634.359 1008.32L633.548 1009.59C630.755 1007.79 627.983 1005.96 625.233 1004.11L626.071 1002.87C623.324 1001.01 620.599 999.134 617.896 997.226L617.031 998.451C614.319 996.536 611.628 994.593 608.961 992.622L609.852 991.415C607.188 989.447 604.547 987.451 601.928 985.426L601.011 986.613C598.384 984.583 595.78 982.524 593.199 980.439L594.141 979.272C591.566 977.191 589.014 975.083 586.486 972.948L585.518 974.094C582.981 971.951 580.468 969.781 577.979 967.586L578.972 966.461C576.49 964.271 574.032 962.054 571.599 959.812L570.582 960.915C568.14 958.665 565.723 956.388 563.331 954.086L564.371 953.005C561.987 950.71 559.627 948.39 557.294 946.044L556.23 947.102C553.888 944.748 551.572 942.369 549.282 939.965L550.368 938.93C548.085 936.534 545.829 934.114 543.599 931.669L542.491 932.68C540.253 930.226 538.042 927.749 535.859 925.248L536.989 924.261C534.812 921.768 532.663 919.252 530.541 916.712L529.39 917.673C527.262 915.126 525.161 912.555 523.089 909.961L524.261 909.025C522.195 906.439 520.157 903.831 518.148 901.201L516.956 902.111C514.941 899.474 512.954 896.814 510.997 894.132L512.208 893.247C510.258 890.575 508.336 887.88 506.443 885.164L505.213 886.022C503.315 883.299 501.447 880.554 499.608 877.789L500.857 876.958C499.026 874.203 497.224 871.428 495.452 868.631L494.185 869.434C492.409 866.63 490.663 863.806 488.947 860.962L490.231 860.187C488.523 857.355 486.845 854.503 485.199 851.632L483.897 852.378C482.246 849.499 480.625 846.599 479.035 843.681L480.353 842.963C478.772 840.06 477.222 837.138 475.704 834.198L474.371 834.886C472.848 831.935 471.356 828.966 469.896 825.979L471.244 825.321C469.794 822.352 468.375 819.365 466.989 816.361L465.627 816.989C464.236 813.975 462.877 810.943 461.552 807.895L462.927 807.297C461.61 804.266 460.324 801.219 459.072 798.154L457.684 798.722C456.429 795.65 455.207 792.562 454.018 789.458L455.419 788.922C454.237 785.835 453.088 782.732 451.973 779.613L450.56 780.118C449.444 776.996 448.361 773.858 447.312 770.705L448.735 770.231C447.691 767.093 446.681 763.94 445.705 760.772L444.272 761.213C443.296 758.047 442.355 754.866 441.448 751.671L442.891 751.261C441.987 748.077 441.118 744.879 440.283 741.667L438.831 742.044C437.999 738.841 437.201 735.624 436.438 732.394L437.898 732.049C437.137 728.83 436.412 725.597 435.721 722.352L434.254 722.664C433.565 719.425 432.911 716.174 432.292 712.91L433.765 712.631C433.15 709.384 432.569 706.125 432.024 702.854L430.544 703.1C430 699.831 429.49 696.55 429.016 693.258L430.501 693.044C430.031 689.777 429.596 686.499 429.197 683.21L427.707 683.391C427.308 680.096 426.943 676.79 426.615 673.474L428.108 673.326C427.783 670.047 427.494 666.757 427.241 663.458L425.745 663.572C425.491 660.262 425.273 656.941 425.091 653.611L426.589 653.53C426.409 650.24 426.265 646.941 426.156 643.634L424.657 643.683C424.549 640.37 424.476 637.047 424.44 633.717L425.939 633.7C425.921 632.04 425.912 630.378 425.912 628.714C425.912 627.049 425.921 625.387 425.939 623.727L424.44 623.711C424.476 620.38 424.549 617.058 424.657 613.745L426.156 613.794C426.265 610.486 426.409 607.187 426.589 603.898L425.091 603.816C425.273 600.486 425.491 597.165 425.745 593.855L427.241 593.97C427.494 590.67 427.783 587.381 428.108 584.101L426.615 583.953C426.943 580.637 427.308 577.332 427.708 574.037L429.197 574.217C429.596 570.928 430.031 567.65 430.501 564.383L429.016 564.17C429.49 560.877 430 557.596 430.544 554.327L432.024 554.574C432.569 551.303 433.15 548.044 433.766 544.797L432.292 544.517C432.911 541.254 433.565 538.002 434.254 534.763L435.721 535.076C436.412 531.83 437.137 528.598 437.898 525.379L436.438 525.034C437.201 521.804 437.999 518.587 438.831 515.383L440.283 515.761C441.118 512.549 441.987 509.35 442.891 506.166L441.448 505.756C442.355 502.561 443.296 499.38 444.272 496.214L445.705 496.656C446.681 493.488 447.691 490.334 448.735 487.196L447.312 486.723C448.361 483.57 449.444 480.432 450.56 477.309L451.973 477.815C453.088 474.696 454.237 471.593 455.419 468.506L454.018 467.969C455.207 464.865 456.429 461.777 457.684 458.706L459.072 459.273C460.325 456.209 461.61 453.161 462.927 450.131L461.552 449.533C462.877 446.484 464.236 443.452 465.627 440.438L466.989 441.067C468.375 438.062 469.794 435.076 471.244 432.107L469.896 431.448C471.356 428.461 472.848 425.492 474.371 422.542L475.704 423.23C477.222 420.289 478.772 417.367 480.353 414.464L479.036 413.747C480.625 410.828 482.246 407.929 483.898 405.049L485.199 405.796C486.846 402.924 488.523 400.073 490.231 397.241L488.947 396.466C490.663 393.622 492.409 390.797 494.185 387.994L495.453 388.796C497.224 386 499.026 383.224 500.858 380.469L499.608 379.639C501.447 376.873 503.315 374.129 505.213 371.406L506.443 372.263C508.336 369.547 510.258 366.853 512.209 364.18L510.997 363.296C512.954 360.614 514.941 357.954 516.956 355.316L518.148 356.227C520.157 353.597 522.195 350.988 524.261 348.403L523.089 347.467C525.161 344.873 527.262 342.302 529.39 339.754L530.541 340.716C532.663 338.176 534.813 335.659 536.989 333.166L535.859 332.18C538.043 329.679 540.253 327.201 542.491 324.748L543.599 325.759C545.829 323.314 548.085 320.893 550.368 318.497L549.282 317.463C551.572 315.059 553.888 312.679 556.23 310.325L557.294 311.383C559.627 309.038 561.987 306.717 564.371 304.422L563.331 303.342C565.723 301.039 568.14 298.763 570.582 296.512L571.599 297.615C574.032 295.373 576.49 293.157 578.972 290.967L577.979 289.842C580.468 287.646 582.981 285.477 585.519 283.334L586.486 284.48C589.014 282.345 591.566 280.237 594.142 278.156L593.199 276.989C595.78 274.903 598.384 272.845 601.011 270.814L601.928 272.001C604.547 269.977 607.188 267.981 609.852 266.012L608.961 264.806C611.629 262.835 614.319 260.891 617.031 258.976L617.896 260.202C620.599 258.293 623.324 256.413 626.071 254.562L625.233 253.318C627.983 251.464 630.755 249.638 633.548 247.842L634.359 249.104C637.142 247.315 639.945 245.554 642.769 243.824L641.986 242.545C644.814 240.811 647.663 239.107 650.532 237.433L651.288 238.729C654.145 237.062 657.021 235.425 659.917 233.819L659.189 232.507C662.091 230.897 665.012 229.317 667.952 227.769L668.651 229.096C671.576 227.555 674.519 226.045 677.481 224.566L676.811 223.224C679.781 221.74 682.769 220.288 685.776 218.867L686.417 220.223C689.404 218.812 692.408 217.431 695.431 216.082L694.819 214.713C697.851 213.359 700.901 212.038 703.968 210.748L704.549 212.131C707.593 210.851 710.654 209.602 713.732 208.386L713.181 206.991C716.267 205.771 719.37 204.583 722.489 203.428L723.01 204.835C726.108 203.687 729.222 202.572 732.351 201.49L731.861 200.072C734.995 198.988 738.145 197.937 741.31 196.918L741.769 198.346C744.916 197.334 748.078 196.354 751.255 195.407L750.826 193.97C754.002 193.024 757.192 192.111 760.396 191.231L760.793 192.677C763.984 191.801 767.189 190.959 770.407 190.15L770.042 188.695C773.252 187.888 776.476 187.115 779.712 186.376L780.046 187.838C783.273 187.101 786.512 186.398 789.764 185.728L789.461 184.259C792.703 183.592 795.957 182.959 799.223 182.36L799.493 183.835C802.745 183.239 806.009 182.677 809.284 182.149L809.045 180.668C812.316 180.14 815.598 179.647 818.892 179.189L819.099 180.675C822.369 180.219 825.65 179.798 828.942 179.412L828.767 177.922C832.063 177.535 835.369 177.183 838.685 176.865L838.828 178.359C842.11 178.045 845.401 177.765 848.702 177.52L848.591 176.024C851.903 175.778 855.224 175.567 858.555 175.391L858.634 176.888C861.924 176.715 865.222 176.575 868.53 176.47L868.482 174.971C871.796 174.866 875.118 174.796 878.449 174.761L878.465 176.261C880.125 176.243 881.788 176.234 883.452 176.234C885.117 176.234 886.779 176.243 888.44 176.261L888.455 174.761C891.786 174.796 895.109 174.866 898.422 174.971L898.375 176.47C901.683 176.575 904.981 176.715 908.271 176.888L908.35 175.391C911.681 175.567 915.002 175.778 918.314 176.024L918.203 177.52C921.504 177.765 924.795 178.045 928.076 178.359L928.219 176.866C931.536 177.183 934.842 177.535 938.138 177.922L937.963 179.412C941.255 179.798 944.536 180.219 947.806 180.675L948.013 179.189C951.306 179.647 954.589 180.14 957.859 180.668L957.621 182.149C960.896 182.677 964.16 183.239 967.411 183.835L967.682 182.36C970.948 182.959 974.202 183.592 977.443 184.259L977.141 185.728C980.393 186.398 983.632 187.101 986.858 187.838L987.192 186.376C990.429 187.115 993.653 187.888 996.863 188.695L996.497 190.15C999.716 190.959 1002.92 191.801 1006.11 192.677L1006.51 191.231C1009.71 192.111 1012.9 193.024 1016.08 193.97L1015.65 195.407C1018.83 196.354 1021.99 197.334 1025.14 198.346L1025.59 196.918C1028.76 197.937 1031.91 198.988 1035.04 200.072L1034.55 201.49C1037.68 202.572 1040.8 203.687 1043.89 204.835L1044.42 203.428C1047.53 204.583 1050.64 205.771 1053.72 206.991L1053.17 208.386C1056.25 209.602 1059.31 210.851 1062.36 212.131L1062.94 210.748C1066 212.038 1069.05 213.359 1072.09 214.713L1071.47 216.083C1074.5 217.431 1077.5 218.812 1080.49 220.223L1081.13 218.867C1084.14 220.288 1087.12 221.74 1090.09 223.224L1089.42 224.566C1092.39 226.045 1095.33 227.555 1098.25 229.096L1098.95 227.769C1101.89 229.317 1104.81 230.897 1107.72 232.507L1106.99 233.819C1109.88 235.425 1112.76 237.062 1115.62 238.729L1116.37 237.433C1119.24 239.107 1122.09 240.811 1124.92 242.545L1124.14 243.824C1126.96 245.554 1129.76 247.315 1132.55 249.104L1133.36 247.842C1136.15 249.638 1138.92 251.464 1141.67 253.318L1140.83 254.562C1143.58 256.413 1146.31 258.293 1149.01 260.202L1149.87 258.977C1152.59 260.891 1155.28 262.835 1157.94 264.806L1157.05 266.012C1159.72 267.981 1162.36 269.977 1164.98 272.001L1165.89 270.814C1168.52 272.845 1171.12 274.904 1173.71 276.989L1172.76 278.156C1175.34 280.237 1177.89 282.345 1180.42 284.48L1181.39 283.334C1183.92 285.477 1186.44 287.646 1188.93 289.842L1187.93 290.967C1190.41 293.157 1192.87 295.373 1195.31 297.616L1196.32 296.513C1198.76 298.763 1201.18 301.04 1203.57 303.342L1202.53 304.422C1204.92 306.717 1207.28 309.038 1209.61 311.383L1210.67 310.325C1213.02 312.68 1215.33 315.059 1217.62 317.463L1216.54 318.497C1218.82 320.893 1221.08 323.314 1223.31 325.759L1224.41 324.748C1226.65 327.201 1228.86 329.679 1231.05 332.18L1229.92 333.166C1232.09 335.659 1234.24 338.176 1236.36 340.716L1237.51 339.755C1239.64 342.302 1241.74 344.873 1243.82 347.467L1242.64 348.403C1244.71 350.989 1246.75 353.597 1248.76 356.227L1249.95 355.317C1251.96 357.954 1253.95 360.614 1255.91 363.296L1254.7 364.18C1256.65 366.853 1258.57 369.548 1260.46 372.264L1261.69 371.406C1263.59 374.129 1265.46 376.873 1267.3 379.639L1266.05 380.469C1267.88 383.224 1269.68 386 1271.45 388.796L1272.72 387.994C1274.5 390.797 1276.24 393.622 1277.96 396.466L1276.67 397.241C1278.38 400.073 1280.06 402.924 1281.71 405.796L1283.01 405.049C1284.66 407.929 1286.28 410.828 1287.87 413.747L1286.55 414.464C1288.13 417.367 1289.68 420.289 1291.2 423.23L1292.53 422.542C1294.06 425.492 1295.55 428.461 1297.01 431.449L1295.66 432.107C1297.11 435.076 1298.53 438.063 1299.92 441.067L1301.28 440.439C1302.67 443.453 1304.03 446.484 1305.35 449.533L1303.98 450.131C1305.29 453.162 1306.58 456.209 1307.83 459.273L1309.22 458.706C1310.48 461.777 1311.7 464.865 1312.89 467.97L1311.49 468.506C1312.67 471.593 1313.82 474.696 1314.93 477.815L1316.34 477.31C1317.46 480.432 1318.54 483.57 1319.59 486.723L1318.17 487.196C1319.21 490.335 1320.22 493.488 1321.2 496.656L1322.63 496.214C1323.61 499.381 1324.55 502.561 1325.46 505.757L1324.01 506.166C1324.92 509.35 1325.79 512.549 1326.62 515.761L1328.07 515.384C1328.91 518.587 1329.7 521.804 1330.47 525.034L1329.01 525.379C1329.77 528.598 1330.49 531.831 1331.18 535.076L1332.65 534.764C1333.34 538.002 1333.99 541.254 1334.61 544.518L1333.14 544.797C1333.75 548.044 1334.34 551.303 1334.88 554.574L1336.36 554.327C1336.9 557.597 1337.41 560.878 1337.89 564.17L1336.4 564.384C1336.87 567.651 1337.31 570.929 1337.71 574.218L1339.2 574.037C1339.6 577.332 1339.96 580.638 1340.29 583.954L1338.8 584.102C1339.12 587.381 1339.41 590.671 1339.66 593.97L1341.16 593.855C1341.41 597.166 1341.63 600.486 1341.81 603.816L1340.32 603.898C1340.5 607.188 1340.64 610.486 1340.75 613.794L1342.25 613.745Z" stroke="white" stroke-width="3" stroke-dasharray="10 10"/>
<path opacity="0.05" d="M1451.22 613.549C1451.31 616.908 1451.37 620.274 1451.4 623.648L1449.9 623.661C1449.92 625.343 1449.93 627.027 1449.93 628.713C1449.93 630.399 1449.92 632.082 1449.9 633.764L1451.4 633.778C1451.37 637.151 1451.31 640.518 1451.22 643.877L1449.72 643.837C1449.63 647.187 1449.51 650.53 1449.37 653.865L1450.86 653.932C1450.71 657.298 1450.53 660.657 1450.32 664.008L1448.83 663.915C1448.62 667.27 1448.38 670.617 1448.11 673.955L1449.6 674.076C1449.33 677.424 1449.03 680.763 1448.7 684.094L1447.21 683.947C1446.88 687.294 1446.52 690.632 1446.13 693.961L1447.62 694.136C1447.22 697.481 1446.8 700.817 1446.35 704.143L1444.86 703.941C1444.41 707.259 1443.93 710.568 1443.42 713.867L1444.91 714.095C1444.39 717.43 1443.85 720.755 1443.28 724.071L1441.8 723.815C1441.23 727.122 1440.62 730.419 1439.99 733.706L1441.47 733.988C1440.84 737.289 1440.17 740.579 1439.48 743.859L1438.01 743.549C1437.32 746.839 1436.6 750.119 1435.85 753.387L1437.31 753.723C1436.56 757 1435.77 760.267 1434.96 763.522L1433.51 763.159C1432.7 766.415 1431.86 769.659 1430.99 772.891L1432.44 773.28C1431.57 776.533 1430.66 779.774 1429.73 783.003L1428.29 782.588C1427.36 785.809 1426.41 789.017 1425.42 792.214L1426.85 792.656C1425.86 795.873 1424.84 799.077 1423.8 802.27L1422.37 801.802C1421.32 804.991 1420.25 808.167 1419.15 811.331L1420.56 811.825C1419.46 814.997 1418.33 818.156 1417.16 821.302L1415.76 820.783C1414.59 823.934 1413.4 827.072 1412.19 830.196L1413.58 830.741C1412.36 833.875 1411.11 836.995 1409.84 840.101L1408.45 839.531C1407.17 842.631 1405.87 845.718 1404.54 848.79L1405.92 849.386C1404.58 852.475 1403.22 855.551 1401.83 858.612L1400.47 857.991C1399.08 861.044 1397.67 864.082 1396.23 867.106L1397.58 867.751C1396.13 870.787 1394.66 873.808 1393.16 876.814L1391.82 876.145C1390.32 879.148 1388.8 882.135 1387.25 885.107L1388.58 885.801C1387.03 888.781 1385.45 891.745 1383.84 894.694L1382.52 893.976C1380.92 896.922 1379.29 899.853 1377.63 902.767L1378.94 903.508C1377.28 906.432 1375.59 909.34 1373.88 912.231L1372.59 911.466C1370.88 914.35 1369.14 917.217 1367.38 920.068L1368.66 920.855C1366.9 923.718 1365.1 926.564 1363.29 929.393L1362.03 928.583C1360.21 931.404 1358.38 934.208 1356.52 936.995L1357.76 937.828C1355.9 940.624 1354.01 943.402 1352.09 946.162L1350.86 945.307C1348.95 948.062 1347.01 950.8 1345.05 953.519L1346.27 954.397C1344.3 957.123 1342.31 959.832 1340.3 962.522L1339.1 961.623C1337.09 964.308 1335.06 966.974 1333 969.622L1334.19 970.542C1332.12 973.197 1330.04 975.833 1327.93 978.451L1326.76 977.51C1324.66 980.12 1322.53 982.711 1320.39 985.284L1321.54 986.245C1319.38 988.825 1317.2 991.386 1315 993.927L1313.87 992.945C1311.67 995.479 1309.46 997.993 1307.22 1000.49L1308.33 1001.49C1306.09 1003.99 1303.82 1006.47 1301.53 1008.93L1300.43 1007.91C1298.15 1010.37 1295.85 1012.8 1293.52 1015.21L1294.6 1016.25C1292.27 1018.67 1289.91 1021.07 1287.54 1023.45L1286.47 1022.39C1284.11 1024.76 1281.72 1027.11 1279.3 1029.44L1280.35 1030.52C1277.93 1032.86 1275.49 1035.17 1273.03 1037.46L1272.01 1036.37C1269.56 1038.65 1267.09 1040.92 1264.59 1043.16L1265.6 1044.28C1263.1 1046.52 1260.58 1048.75 1258.05 1050.95L1257.06 1049.82C1254.53 1052.02 1251.98 1054.19 1249.41 1056.35L1250.37 1057.5C1247.8 1059.66 1245.2 1061.79 1242.59 1063.91L1241.64 1062.74C1239.04 1064.84 1236.41 1066.93 1233.77 1068.99L1234.69 1070.17C1232.04 1072.24 1229.37 1074.28 1226.68 1076.3L1225.78 1075.1C1223.1 1077.11 1220.4 1079.1 1217.69 1081.07L1218.56 1082.28C1215.84 1084.25 1213.1 1086.2 1210.35 1088.12L1209.49 1086.89C1206.74 1088.81 1203.97 1090.7 1201.18 1092.57L1202.02 1093.82C1199.23 1095.69 1196.43 1097.54 1193.6 1099.36L1192.79 1098.1C1189.97 1099.92 1187.14 1101.71 1184.29 1103.48L1185.08 1104.76C1182.23 1106.53 1179.36 1108.28 1176.47 1110L1175.7 1108.72C1172.82 1110.43 1169.93 1112.12 1167.02 1113.79L1167.77 1115.09C1164.85 1116.76 1161.92 1118.41 1158.97 1120.03L1158.25 1118.71C1155.31 1120.33 1152.36 1121.92 1149.39 1123.48L1150.09 1124.81C1147.12 1126.37 1144.14 1127.91 1141.13 1129.42L1140.46 1128.09C1137.47 1129.6 1134.46 1131.08 1131.43 1132.54L1132.08 1133.89C1129.06 1135.35 1126.02 1136.78 1122.97 1138.19L1122.34 1136.82C1119.3 1138.22 1116.24 1139.6 1113.17 1140.95L1113.77 1142.32C1110.7 1143.67 1107.6 1145 1104.49 1146.3L1103.92 1144.92C1100.83 1146.21 1097.73 1147.47 1094.62 1148.71L1095.17 1150.1C1092.05 1151.34 1088.92 1152.56 1085.77 1153.75L1085.24 1152.34C1082.1 1153.52 1078.95 1154.68 1075.79 1155.81L1076.29 1157.22C1073.14 1158.35 1069.96 1159.45 1066.78 1160.52L1066.3 1159.1C1063.12 1160.17 1059.94 1161.22 1056.73 1162.23L1057.19 1163.66C1053.99 1164.68 1050.78 1165.67 1047.55 1166.63L1047.12 1165.19C1043.92 1166.14 1040.7 1167.07 1037.47 1167.97L1037.87 1169.42C1034.63 1170.32 1031.38 1171.2 1028.12 1172.04L1027.74 1170.59C1024.51 1171.43 1021.26 1172.24 1018 1173.03L1018.35 1174.49C1015.09 1175.27 1011.81 1176.03 1008.53 1176.76L1008.2 1175.3C1004.93 1176.03 1001.64 1176.73 998.347 1177.4L998.647 1178.87C995.365 1179.54 992.073 1180.18 988.771 1180.79L988.497 1179.31C985.205 1179.92 981.904 1180.51 978.592 1181.06L978.84 1182.54C975.523 1183.09 972.196 1183.62 968.86 1184.12L968.638 1182.63C965.336 1183.13 962.025 1183.59 958.704 1184.03L958.899 1185.51C955.57 1185.95 952.232 1186.36 948.884 1186.74L948.715 1185.25C945.385 1185.63 942.047 1185.98 938.7 1186.3L938.842 1187.79C935.51 1188.11 932.169 1188.4 928.82 1188.66L928.703 1187.17C925.363 1187.43 922.015 1187.66 918.658 1187.86L918.749 1189.36C915.398 1189.56 912.04 1189.74 908.674 1189.88L908.609 1188.38C905.273 1188.53 901.929 1188.64 898.579 1188.73L898.617 1190.23C895.258 1190.32 891.892 1190.38 888.518 1190.4L888.505 1188.9C886.822 1188.92 885.138 1188.93 883.452 1188.93C881.766 1188.93 880.081 1188.92 878.398 1188.9L878.385 1190.4C875.012 1190.38 871.645 1190.32 868.286 1190.23L868.325 1188.73C864.974 1188.64 861.63 1188.53 858.295 1188.38L858.23 1189.88C854.864 1189.74 851.505 1189.56 848.154 1189.36L848.245 1187.86C844.889 1187.66 841.54 1187.43 838.2 1187.17L838.083 1188.66C834.734 1188.4 831.393 1188.11 828.061 1187.79L828.204 1186.3C824.857 1185.98 821.518 1185.63 818.188 1185.25L818.019 1186.74C814.672 1186.36 811.333 1185.95 808.004 1185.51L808.199 1184.03C804.879 1183.59 801.567 1183.13 798.265 1182.63L798.044 1184.12C794.708 1183.62 791.381 1183.09 788.064 1182.54L788.311 1181.06C785 1180.51 781.698 1179.92 778.407 1179.31L778.133 1180.79C774.831 1180.18 771.539 1179.54 768.257 1178.87L768.557 1177.4C765.26 1176.73 761.974 1176.03 758.699 1175.3L758.373 1176.76C755.09 1176.03 751.816 1175.27 748.554 1174.49L748.906 1173.03C745.646 1172.24 742.397 1171.43 739.16 1170.59L738.783 1172.04C735.521 1171.19 732.271 1170.32 729.033 1169.42L729.435 1167.97C726.205 1167.07 722.987 1166.14 719.781 1165.19L719.352 1166.63C716.128 1165.67 712.916 1164.68 709.716 1163.66L710.169 1162.23C706.968 1161.22 703.78 1160.17 700.604 1159.1L700.125 1160.52C696.94 1159.45 693.769 1158.35 690.61 1157.22L691.114 1155.81C687.952 1154.68 684.802 1153.52 681.666 1152.34L681.137 1153.74C677.989 1152.56 674.853 1151.34 671.732 1150.1L672.286 1148.71C669.173 1147.47 666.074 1146.21 662.988 1144.92L662.409 1146.3C659.302 1145 656.208 1143.67 653.129 1142.32L653.732 1140.95C650.661 1139.6 647.605 1138.22 644.563 1136.82L643.935 1138.19C640.882 1136.78 637.843 1135.35 634.82 1133.89L635.472 1132.54C632.448 1131.08 629.439 1129.6 626.445 1128.09L625.77 1129.42C622.768 1127.91 619.782 1126.37 616.812 1124.81L617.511 1123.48C614.543 1121.92 611.591 1120.33 608.655 1118.71L607.932 1120.03C604.984 1118.41 602.052 1116.76 599.136 1115.09L599.882 1113.79C596.973 1112.12 594.082 1110.43 591.207 1108.72L590.438 1110C587.549 1108.28 584.676 1106.53 581.821 1104.76L582.612 1103.48C579.763 1101.71 576.931 1099.92 574.116 1098.1L573.302 1099.36C570.479 1097.54 567.673 1095.69 564.885 1093.82L565.721 1092.57C562.935 1090.7 560.166 1088.81 557.416 1086.89L556.558 1088.12C553.8 1086.2 551.061 1084.25 548.34 1082.28L549.219 1081.07C546.503 1079.1 543.805 1077.11 541.126 1075.1L540.225 1076.3C537.536 1074.28 534.866 1072.24 532.215 1070.17L533.137 1068.99C530.493 1066.93 527.867 1064.84 525.262 1062.74L524.319 1063.91C521.703 1061.79 519.108 1059.66 516.531 1057.5L517.495 1056.35C514.924 1054.19 512.373 1052.02 509.843 1049.82L508.859 1050.95C506.322 1048.75 503.804 1046.52 501.307 1044.28L502.31 1043.16C499.817 1040.92 497.345 1038.65 494.893 1036.37L493.87 1037.46C491.411 1035.17 488.974 1032.86 486.557 1030.52L487.599 1029.44C485.188 1027.11 482.799 1024.76 480.43 1022.39L479.369 1023.45C476.993 1021.07 474.638 1018.67 472.306 1016.25L473.386 1015.21C471.059 1012.8 468.754 1010.37 466.471 1007.91L465.372 1008.93C463.083 1006.47 460.816 1003.99 458.57 1001.49L459.687 1000.49C457.447 997.993 455.23 995.479 453.035 992.945L451.901 993.927C449.701 991.386 447.523 988.825 445.368 986.245L446.519 985.284C444.37 982.711 442.244 980.12 440.141 977.51L438.973 978.451C436.865 975.833 434.779 973.197 432.718 970.542L433.902 969.622C431.846 966.974 429.814 964.308 427.805 961.623L426.604 962.522C424.591 959.832 422.602 957.123 420.636 954.396L421.853 953.519C419.893 950.8 417.957 948.062 416.045 945.307L414.813 946.162C412.897 943.402 411.006 940.624 409.139 937.828L410.387 936.995C408.526 934.208 406.69 931.404 404.879 928.583L403.617 929.393C401.8 926.564 400.009 923.718 398.243 920.855L399.52 920.068C397.761 917.217 396.028 914.35 394.319 911.466L393.029 912.231C391.316 909.34 389.629 906.432 387.968 903.509L389.272 902.768C387.616 899.853 385.985 896.923 384.381 893.976L383.064 894.694C381.458 891.745 379.878 888.781 378.324 885.801L379.654 885.107C378.104 882.135 376.581 879.148 375.084 876.145L373.741 876.815C372.242 873.808 370.77 870.787 369.324 867.751L370.678 867.106C369.239 864.083 367.826 861.044 366.439 857.992L365.073 858.612C363.683 855.551 362.32 852.476 360.984 849.386L362.361 848.791C361.033 845.718 359.731 842.632 358.457 839.531L357.069 840.102C355.793 836.995 354.543 833.875 353.322 830.742L354.719 830.197C353.501 827.072 352.31 823.935 351.148 820.784L349.74 821.303C348.579 818.157 347.446 814.997 346.34 811.825L347.757 811.331C346.654 808.168 345.58 804.991 344.533 801.802L343.108 802.27C342.06 799.078 341.041 795.873 340.05 792.656L341.483 792.215C340.499 789.018 339.542 785.809 338.614 782.589L337.172 783.004C336.242 779.775 335.339 776.533 334.466 773.281L335.914 772.892C335.046 769.659 334.207 766.415 333.396 763.16L331.941 763.523C331.13 760.267 330.348 757.001 329.594 753.724L331.056 753.388C330.305 750.119 329.583 746.84 328.89 743.55L327.422 743.859C326.731 740.58 326.069 737.289 325.437 733.989L326.91 733.707C326.28 730.42 325.679 727.123 325.107 723.816L323.629 724.072C323.055 720.756 322.512 717.431 321.997 714.096L323.48 713.867C322.971 710.568 322.491 707.26 322.041 703.942L320.555 704.144C320.103 700.817 319.681 697.482 319.289 694.137L320.779 693.962C320.388 690.633 320.027 687.294 319.696 683.948L318.203 684.095C317.874 680.764 317.574 677.425 317.303 674.077L318.798 673.956C318.528 670.618 318.288 667.271 318.078 663.916L316.581 664.009C316.371 660.658 316.19 657.299 316.04 653.933L317.538 653.866C317.389 650.531 317.27 647.188 317.18 643.838L315.681 643.878C315.591 640.519 315.53 637.152 315.5 633.779L317 633.765C316.985 632.083 316.978 630.399 316.978 628.713C316.978 627.028 316.985 625.344 317 623.662L315.5 623.649C315.53 620.275 315.591 616.909 315.681 613.55L317.18 613.59C317.27 610.24 317.389 606.897 317.538 603.562L316.04 603.495C316.19 600.128 316.371 596.769 316.581 593.418L318.078 593.512C318.288 590.157 318.528 586.81 318.798 583.471L317.303 583.35C317.574 580.003 317.874 576.663 318.203 573.332L319.696 573.48C320.027 570.133 320.388 566.795 320.779 563.465L319.289 563.291C319.681 559.946 320.103 556.61 320.555 553.283L322.041 553.485C322.491 550.167 322.971 546.859 323.48 543.56L321.997 543.331C322.511 539.996 323.055 536.671 323.629 533.356L325.107 533.611C325.678 530.304 326.28 527.007 326.91 523.721L325.437 523.438C326.069 520.138 326.731 516.848 327.422 513.568L328.89 513.877C329.583 510.587 330.305 507.308 331.056 504.039L329.594 503.703C330.347 500.426 331.13 497.16 331.94 493.905L333.396 494.267C334.207 491.012 335.046 487.768 335.914 484.535L334.466 484.146C335.339 480.894 336.241 477.652 337.172 474.423L338.613 474.838C339.542 471.618 340.498 468.409 341.483 465.212L340.05 464.771C341.041 461.554 342.06 458.349 343.108 455.157L344.533 455.625C345.579 452.436 346.654 449.259 347.757 446.095L346.34 445.602C347.446 442.43 348.579 439.27 349.74 436.124L351.147 436.643C352.31 433.492 353.501 430.354 354.719 427.23L353.322 426.685C354.543 423.552 355.793 420.432 357.069 417.325L358.457 417.896C359.731 414.795 361.032 411.709 362.361 408.636L360.984 408.041C362.32 404.951 363.683 401.876 365.073 398.815L366.439 399.435C367.825 396.382 369.239 393.344 370.678 390.321L369.324 389.676C370.77 386.64 372.242 383.618 373.741 380.612L375.084 381.281C376.581 378.279 378.104 375.291 379.654 372.319L378.324 371.626C379.878 368.646 381.458 365.682 383.063 362.733L384.381 363.45C385.985 360.504 387.616 357.574 389.272 354.659L387.968 353.918C389.629 350.994 391.316 348.087 393.029 345.196L394.319 345.96C396.027 343.077 397.761 340.209 399.519 337.359L398.243 336.571C400.009 333.708 401.8 330.862 403.617 328.033L404.879 328.844C406.69 326.023 408.526 323.218 410.387 320.432L409.139 319.599C411.006 316.803 412.897 314.025 414.813 311.264L416.045 312.119C417.957 309.364 419.893 306.626 421.853 303.907L420.636 303.03C422.602 300.303 424.591 297.595 426.604 294.904L427.805 295.803C429.814 293.119 431.846 290.452 433.902 287.805L432.718 286.885C434.78 284.23 436.865 281.593 438.973 278.976L440.141 279.917C442.244 277.307 444.37 274.715 446.519 272.143L445.368 271.181C447.523 268.601 449.701 266.041 451.901 263.5L453.035 264.482C455.23 261.948 457.447 259.433 459.687 256.939L458.57 255.937C460.816 253.436 463.083 250.954 465.372 248.494L466.471 249.515C468.754 247.061 471.059 244.627 473.386 242.213L472.306 241.172C474.639 238.753 476.993 236.353 479.369 233.975L480.43 235.035C482.799 232.663 485.188 230.313 487.599 227.983L486.557 226.905C488.974 224.569 491.411 222.255 493.87 219.963L494.893 221.06C497.345 218.773 499.817 216.508 502.31 214.265L501.307 213.15C503.804 210.902 506.322 208.677 508.859 206.473L509.843 207.606C512.373 205.408 514.924 203.232 517.495 201.079L516.531 199.929C519.108 197.77 521.704 195.634 524.319 193.521L525.262 194.688C527.868 192.582 530.493 190.498 533.137 188.438L532.215 187.255C534.866 185.189 537.536 183.146 540.225 181.126L541.126 182.325C543.805 180.313 546.503 178.323 549.219 176.357L548.34 175.142C551.061 173.172 553.801 171.226 556.558 169.303L557.416 170.534C560.167 168.616 562.935 166.722 565.721 164.852L564.885 163.606C567.673 161.735 570.479 159.887 573.302 158.064L574.116 159.324C576.931 157.506 579.763 155.712 582.612 153.943L581.821 152.668C584.676 150.895 587.549 149.146 590.438 147.422L591.207 148.71C594.082 146.994 596.974 145.303 599.882 143.637L599.136 142.336C602.052 140.665 604.984 139.019 607.932 137.398L608.655 138.713C611.591 137.099 614.543 135.51 617.511 133.947L616.812 132.62C619.782 131.055 622.768 129.516 625.77 128.002L626.445 129.341C629.439 127.831 632.448 126.347 635.472 124.889L634.82 123.537C637.844 122.079 640.882 120.647 643.935 119.241L644.563 120.603C647.605 119.202 650.661 117.827 653.733 116.478L653.129 115.104C656.208 113.752 659.302 112.426 662.41 111.126L662.988 112.51C666.074 111.219 669.173 109.955 672.287 108.718L671.732 107.324C674.854 106.083 677.989 104.869 681.138 103.681L681.667 105.085C684.803 103.902 687.952 102.746 691.115 101.618L690.611 100.205C693.769 99.0774 696.941 97.9769 700.125 96.9035L700.604 98.3249C703.78 97.2544 706.969 96.211 710.17 95.195L709.716 93.7653C712.916 92.7496 716.128 91.7613 719.353 90.8005L719.781 92.238C722.988 91.2826 726.206 90.3546 729.436 89.4542L729.033 88.0093C732.272 87.1065 735.522 86.2314 738.784 85.3842L739.161 86.836C742.398 85.9952 745.647 85.1821 748.906 84.3968L748.555 82.9385C751.817 82.1527 755.09 81.3946 758.374 80.6648L758.7 82.129C761.975 81.4011 765.261 80.7012 768.557 80.0296L768.258 78.5598C771.539 77.8912 774.832 77.2506 778.134 76.6383L778.407 78.1131C781.699 77.5028 785.001 76.9205 788.312 76.3667L788.065 74.8873C791.382 74.3325 794.708 73.8062 798.045 73.3086L798.266 74.7922C801.568 74.2997 804.88 73.8354 808.2 73.3996L808.005 71.9123C811.334 71.4753 814.673 71.0668 818.02 70.6871L818.189 72.1775C821.519 71.7998 824.858 71.4506 828.205 71.1302L828.062 69.637C831.394 69.3181 834.735 69.0276 838.084 68.7658L838.201 70.2613C841.541 70.0002 844.89 69.7678 848.246 69.5643L848.155 68.067C851.506 67.8638 854.865 67.6894 858.231 67.5439L858.296 69.0425C861.631 68.8983 864.975 68.7827 868.326 68.6958L868.287 67.1963C871.646 67.1093 875.013 67.051 878.386 67.0219L878.399 68.5218C880.082 68.5073 881.766 68.5 883.452 68.5C885.138 68.5 886.823 68.5073 888.506 68.5218L888.519 67.0219C891.893 67.051 895.259 67.1093 898.618 67.1964L898.58 68.6959C901.93 68.7827 905.274 68.8984 908.61 69.0425L908.674 67.5439C912.041 67.6894 915.399 67.8639 918.75 68.0671L918.659 69.5643C922.016 69.7678 925.364 70.0003 928.704 70.2614L928.821 68.7659C932.17 69.0277 935.511 69.3182 938.843 69.6371L938.7 71.1303C942.048 71.4507 945.386 71.7999 948.716 72.1776L948.885 70.6872C952.233 71.0669 955.571 71.4754 958.9 71.9124L958.705 73.3997C962.026 73.8355 965.337 74.2998 968.639 74.7924L968.86 73.3088C972.197 73.8064 975.523 74.3327 978.841 74.8874L978.593 76.3669C981.904 76.9207 985.206 77.5029 988.498 78.1133L988.771 76.6384C992.073 77.2507 995.365 77.8913 998.647 78.5599L998.348 80.0297C1001.64 80.7013 1004.93 81.4012 1008.21 82.1292L1008.53 80.6649C1011.81 81.3948 1015.09 82.1528 1018.35 82.9387L1018 84.3969C1021.26 85.1822 1024.51 85.9954 1027.74 86.8362L1028.12 85.3844C1031.38 86.2315 1034.63 87.1066 1037.87 88.0094L1037.47 89.4543C1040.7 90.3547 1043.92 91.2828 1047.12 92.2382L1047.55 90.8006C1050.78 91.7614 1053.99 92.7498 1057.19 93.7655L1056.73 95.1952C1059.94 96.2112 1063.12 97.2546 1066.3 98.3251L1066.78 96.9037C1069.96 97.977 1073.14 99.0776 1076.29 100.205L1075.79 101.618C1078.95 102.747 1082.1 103.902 1085.24 105.085L1085.77 103.681C1088.92 104.869 1092.05 106.083 1095.17 107.324L1094.62 108.718C1097.73 109.955 1100.83 111.22 1103.92 112.51L1104.5 111.126C1107.6 112.426 1110.7 113.752 1113.78 115.105L1113.17 116.478C1116.24 117.827 1119.3 119.202 1122.34 120.603L1122.97 119.241C1126.02 120.647 1129.06 122.079 1132.08 123.538L1131.43 124.889C1134.46 126.347 1137.47 127.831 1140.46 129.341L1141.13 128.002C1144.14 129.516 1147.12 131.055 1150.09 132.62L1149.39 133.947C1152.36 135.51 1155.31 137.099 1158.25 138.713L1158.97 137.399C1161.92 139.019 1164.85 140.665 1167.77 142.336L1167.02 143.637C1169.93 145.303 1172.82 146.995 1175.7 148.71L1176.47 147.422C1179.36 149.146 1182.23 150.895 1185.08 152.669L1184.29 153.943C1187.14 155.712 1189.97 157.506 1192.79 159.324L1193.6 158.064C1196.43 159.887 1199.23 161.735 1202.02 163.606L1201.18 164.852C1203.97 166.722 1206.74 168.616 1209.49 170.534L1210.35 169.303C1213.1 171.226 1215.84 173.172 1218.56 175.142L1217.69 176.357C1220.4 178.323 1223.1 180.313 1225.78 182.325L1226.68 181.126C1229.37 183.146 1232.04 185.189 1234.69 187.255L1233.77 188.438C1236.41 190.499 1239.04 192.582 1241.64 194.688L1242.59 193.521C1245.2 195.634 1247.8 197.771 1250.37 199.929L1249.41 201.079C1251.98 203.232 1254.53 205.408 1257.06 207.606L1258.05 206.473C1260.58 208.677 1263.1 210.902 1265.6 213.15L1264.59 214.265C1267.09 216.508 1269.56 218.773 1272.01 221.06L1273.03 219.963C1275.49 222.255 1277.93 224.569 1280.35 226.905L1279.31 227.983C1281.72 230.313 1284.11 232.663 1286.47 235.035L1287.54 233.975C1289.91 236.353 1292.27 238.753 1294.6 241.172L1293.52 242.214C1295.85 244.627 1298.15 247.061 1300.43 249.515L1301.53 248.494C1303.82 250.954 1306.09 253.436 1308.33 255.937L1307.22 256.939C1309.46 259.433 1311.67 261.948 1313.87 264.482L1315 263.5C1317.2 266.041 1319.38 268.601 1321.54 271.181L1320.39 272.143C1322.53 274.715 1324.66 277.307 1326.76 279.917L1327.93 278.976C1330.04 281.593 1332.12 284.23 1334.19 286.885L1333 287.805C1335.06 290.452 1337.09 293.119 1339.1 295.803L1340.3 294.905C1342.31 297.595 1344.3 300.303 1346.27 303.03L1345.05 303.907C1347.01 306.627 1348.95 309.364 1350.86 312.119L1352.09 311.264C1354.01 314.025 1355.9 316.803 1357.76 319.599L1356.52 320.432C1358.38 323.218 1360.21 326.023 1362.03 328.844L1363.29 328.033C1365.1 330.862 1366.9 333.708 1368.66 336.571L1367.38 337.359C1369.14 340.209 1370.88 343.077 1372.58 345.96L1373.88 345.196C1375.59 348.087 1377.27 350.994 1378.94 353.918L1377.63 354.659C1379.29 357.573 1380.92 360.504 1382.52 363.45L1383.84 362.733C1385.45 365.681 1387.03 368.646 1388.58 371.626L1387.25 372.319C1388.8 375.291 1390.32 378.279 1391.82 381.281L1393.16 380.612C1394.66 383.618 1396.13 386.639 1397.58 389.676L1396.23 390.321C1397.67 393.344 1399.08 396.382 1400.47 399.435L1401.83 398.815C1403.22 401.875 1404.58 404.951 1405.92 408.041L1404.54 408.636C1405.87 411.708 1407.17 414.795 1408.45 417.895L1409.83 417.325C1411.11 420.431 1412.36 423.551 1413.58 426.685L1412.19 427.23C1413.4 430.354 1414.59 433.492 1415.76 436.643L1417.16 436.124C1418.32 439.27 1419.46 442.429 1420.56 445.601L1419.15 446.095C1420.25 449.259 1421.32 452.435 1422.37 455.624L1423.8 455.156C1424.84 458.349 1425.86 461.553 1426.85 464.77L1425.42 465.212C1426.41 468.409 1427.36 471.617 1428.29 474.838L1429.73 474.423C1430.66 477.652 1431.57 480.893 1432.44 484.146L1430.99 484.535C1431.86 487.767 1432.7 491.011 1433.51 494.266L1434.96 493.904C1435.77 497.159 1436.56 500.426 1437.31 503.703L1435.85 504.039C1436.6 507.307 1437.32 510.586 1438.01 513.876L1439.48 513.567C1440.17 516.847 1440.83 520.137 1441.47 523.437L1439.99 523.72C1440.62 527.007 1441.23 530.304 1441.8 533.611L1443.28 533.355C1443.85 536.67 1444.39 539.996 1444.91 543.331L1443.42 543.559C1443.93 546.858 1444.41 550.167 1444.86 553.484L1446.35 553.283C1446.8 556.609 1447.22 559.945 1447.62 563.29L1446.13 563.464C1446.52 566.794 1446.88 570.132 1447.21 573.479L1448.7 573.331C1449.03 576.662 1449.33 580.002 1449.6 583.349L1448.11 583.47C1448.38 586.809 1448.62 590.156 1448.83 593.511L1450.32 593.417C1450.53 596.768 1450.71 600.127 1450.86 603.494L1449.37 603.561C1449.51 606.896 1449.63 610.239 1449.72 613.589L1451.22 613.549Z" stroke="white" stroke-width="3" stroke-dasharray="10 10"/>
<path opacity="0.15" d="M1247.45 613.456C1247.59 616.829 1247.68 620.214 1247.73 623.61L1246.23 623.631C1246.25 625.322 1246.27 627.016 1246.27 628.713C1246.27 630.409 1246.25 632.103 1246.23 633.794L1247.73 633.815C1247.68 637.212 1247.59 640.597 1247.45 643.97L1245.95 643.906C1245.8 647.289 1245.61 650.66 1245.38 654.019L1246.87 654.124C1246.64 657.508 1246.35 660.879 1246.02 664.236L1244.53 664.088C1244.19 667.459 1243.81 670.816 1243.38 674.159L1244.87 674.349C1244.44 677.713 1243.97 681.061 1243.44 684.395L1241.96 684.163C1241.44 687.508 1240.86 690.837 1240.25 694.151L1241.72 694.426C1241.1 697.761 1240.43 701.08 1239.72 704.382L1238.25 704.066C1237.54 707.371 1236.78 710.659 1235.97 713.929L1237.43 714.288C1236.62 717.583 1235.76 720.861 1234.86 724.121L1233.41 723.72C1232.51 726.975 1231.56 730.211 1230.57 733.429L1232.01 733.87C1231.01 737.115 1229.96 740.34 1228.87 743.545L1227.45 743.062C1226.37 746.258 1225.24 749.434 1224.06 752.589L1225.47 753.112C1224.29 756.293 1223.06 759.454 1221.79 762.593L1220.4 762.03C1219.13 765.159 1217.82 768.267 1216.47 771.352L1217.84 771.955C1216.48 775.061 1215.07 778.144 1213.62 781.204L1212.27 780.563C1210.82 783.615 1209.34 786.645 1207.81 789.65L1209.15 790.329C1207.61 793.351 1206.03 796.348 1204.42 799.32L1203.1 798.603C1201.48 801.568 1199.83 804.509 1198.13 807.424L1199.43 808.179C1197.72 811.108 1195.98 814.011 1194.19 816.887L1192.92 816.096C1191.14 818.965 1189.32 821.807 1187.46 824.622L1188.71 825.449C1186.84 828.277 1184.94 831.077 1182.99 833.85L1181.76 832.988C1179.83 835.751 1177.85 838.486 1175.84 841.191L1177.04 842.087C1175.02 844.805 1172.96 847.495 1170.86 850.154L1169.68 849.225C1167.59 851.874 1165.46 854.494 1163.3 857.082L1164.45 858.044C1162.28 860.644 1160.07 863.214 1157.83 865.752L1156.7 864.759C1154.47 867.287 1152.2 869.783 1149.89 872.248L1150.99 873.272C1148.68 875.747 1146.33 878.189 1143.95 880.598L1142.88 879.544C1140.51 881.942 1138.1 884.308 1135.66 886.641L1136.7 887.725C1134.25 890.066 1131.77 892.374 1129.26 894.648L1128.25 893.535C1125.75 895.798 1123.22 898.026 1120.65 900.219L1121.63 901.359C1119.05 903.561 1116.45 905.727 1113.81 907.857L1112.87 906.691C1110.24 908.81 1107.59 910.894 1104.91 912.942L1105.82 914.134C1103.13 916.188 1100.4 918.206 1097.65 920.187L1096.78 918.97C1094.04 920.94 1091.27 922.874 1088.48 924.77L1089.32 926.011C1086.52 927.912 1083.69 929.774 1080.84 931.599L1080.03 930.335C1077.19 932.151 1074.32 933.928 1071.42 935.667L1072.19 936.953C1069.29 938.694 1066.36 940.396 1063.41 942.058L1062.67 940.751C1059.74 942.405 1056.77 944.02 1053.78 945.594L1054.48 946.921C1051.49 948.498 1048.47 950.036 1045.43 951.532L1044.76 950.186C1041.74 951.673 1038.69 953.119 1035.62 954.524L1036.25 955.888C1033.17 957.297 1030.07 958.664 1026.94 959.989L1026.36 958.608C1023.26 959.923 1020.13 961.197 1016.99 962.428L1017.54 963.825C1014.38 965.06 1011.21 966.253 1008.01 967.402L1007.51 965.991C1004.34 967.13 1001.15 968.227 997.944 969.281L998.412 970.706C995.198 971.763 991.963 972.776 988.71 973.745L988.281 972.308C985.054 973.269 981.808 974.188 978.544 975.062L978.932 976.511C975.667 977.386 972.383 978.217 969.081 979.003L968.734 977.544C965.456 978.325 962.161 979.062 958.849 979.754L959.156 981.222C955.85 981.913 952.528 982.56 949.19 983.161L948.924 981.685C945.605 982.283 942.271 982.837 938.921 983.345L939.146 984.828C935.811 985.334 932.461 985.795 929.097 986.211L928.913 984.722C925.568 985.136 922.21 985.504 918.838 985.827L918.981 987.32C915.622 987.642 912.249 987.918 908.865 988.149L908.763 986.652C905.404 986.881 902.032 987.065 898.649 987.203L898.71 988.701C895.336 988.839 891.951 988.931 888.555 988.977L888.534 987.477C886.843 987.5 885.149 987.512 883.452 987.512C881.755 987.512 880.061 987.5 878.369 987.477L878.349 988.977C874.952 988.931 871.567 988.839 868.194 988.701L868.255 987.203C864.871 987.065 861.5 986.881 858.141 986.652L858.039 988.149C854.654 987.918 851.282 987.642 847.923 987.32L848.066 985.827C844.694 985.504 841.335 985.136 837.991 984.722L837.807 986.211C834.442 985.795 831.092 985.334 827.757 984.828L827.982 983.345C824.633 982.837 821.298 982.283 817.98 981.685L817.714 983.161C814.375 982.56 811.053 981.913 807.747 981.222L808.054 979.754C804.743 979.062 801.447 978.325 798.17 977.544L797.822 979.003C794.521 978.217 791.237 977.386 787.971 976.511L788.36 975.062C785.095 974.188 781.849 973.269 778.622 972.308L778.194 973.745C774.94 972.776 771.706 971.763 768.491 970.706L768.959 969.281C765.752 968.227 762.565 967.13 759.398 965.991L758.89 967.402C755.694 966.253 752.52 965.06 749.367 963.825L749.914 962.428C746.77 961.197 743.648 959.923 740.548 958.608L739.962 959.989C736.838 958.664 733.736 957.297 730.658 955.888L731.282 954.524C728.211 953.119 725.163 951.673 722.139 950.186L721.477 951.532C718.434 950.036 715.415 948.499 712.421 946.921L713.12 945.594C710.131 944.02 707.168 942.405 704.23 940.751L703.494 942.058C700.541 940.396 697.613 938.694 694.712 936.953L695.484 935.667C692.587 933.928 689.717 932.151 686.874 930.335L686.067 931.599C683.21 929.775 680.381 927.912 677.581 926.011L678.423 924.77C675.629 922.874 672.863 920.94 670.126 918.97L669.25 920.187C666.499 918.206 663.777 916.188 661.085 914.134L661.995 912.942C659.312 910.894 656.659 908.81 654.036 906.691L653.093 907.858C650.457 905.727 647.851 903.561 645.277 901.359L646.252 900.219C643.687 898.026 641.154 895.798 638.653 893.535L637.646 894.648C635.133 892.374 632.652 890.066 630.204 887.725L631.241 886.641C628.802 884.308 626.397 881.942 624.025 879.544L622.958 880.598C620.576 878.189 618.227 875.747 615.914 873.272L617.009 872.248C614.705 869.783 612.435 867.287 610.2 864.759L609.076 865.752C606.833 863.214 604.624 860.644 602.452 858.044L603.603 857.082C601.44 854.494 599.314 851.874 597.224 849.225L596.046 850.154C593.948 847.495 591.887 844.805 589.864 842.087L591.067 841.191C589.053 838.486 587.077 835.751 585.139 832.988L583.911 833.85C581.966 831.078 580.059 828.277 578.192 825.449L579.444 824.622C577.585 821.807 575.766 818.965 573.986 816.096L572.711 816.887C570.926 814.011 569.181 811.108 567.477 808.179L568.773 807.424C567.077 804.509 565.421 801.569 563.805 798.603L562.488 799.32C560.87 796.348 559.292 793.351 557.756 790.33L559.093 789.65C557.566 786.645 556.079 783.616 554.635 780.563L553.28 781.204C551.832 778.144 550.427 775.061 549.065 771.955L550.438 771.353C549.085 768.267 547.775 765.16 546.508 762.03L545.117 762.593C543.846 759.454 542.618 756.294 541.435 753.112L542.841 752.589C541.667 749.434 540.537 746.258 539.451 743.063L538.031 743.545C536.942 740.34 535.897 737.115 534.898 733.87L536.331 733.429C535.34 730.212 534.394 726.975 533.492 723.721L532.047 724.121C531.144 720.861 530.286 717.584 529.475 714.288L530.931 713.929C530.125 710.659 529.365 707.371 528.651 704.066L527.185 704.383C526.471 701.08 525.803 697.761 525.182 694.426L526.656 694.151C526.039 690.838 525.467 687.508 524.943 684.163L523.461 684.395C522.938 681.062 522.461 677.713 522.031 674.35L523.519 674.159C523.092 670.817 522.711 667.459 522.378 664.089L520.885 664.236C520.553 660.879 520.267 657.508 520.029 654.124L521.525 654.019C521.288 650.661 521.099 647.29 520.956 643.907L519.457 643.97C519.315 640.597 519.22 637.212 519.172 633.816L520.672 633.795C520.649 632.103 520.637 630.409 520.637 628.713C520.637 627.016 520.649 625.322 520.672 623.631L519.172 623.61C519.22 620.214 519.315 616.829 519.457 613.456L520.956 613.519C521.099 610.136 521.288 606.765 521.525 603.407L520.029 603.302C520.267 599.918 520.553 596.547 520.885 593.189L522.378 593.337C522.711 589.966 523.092 586.609 523.519 583.266L522.031 583.076C522.461 579.713 522.938 576.364 523.461 573.031L524.943 573.263C525.467 569.918 526.039 566.588 526.656 563.275L525.182 563C525.803 559.665 526.471 556.345 527.185 553.043L528.651 553.36C529.365 550.055 530.125 546.767 530.931 543.496L529.475 543.138C530.286 539.842 531.144 536.564 532.047 533.305L533.492 533.705C534.394 530.45 535.34 527.214 536.331 523.997L534.898 523.555C535.897 520.311 536.942 517.086 538.031 513.881L539.451 514.363C540.537 511.167 541.667 507.992 542.841 504.837L541.435 504.314C542.618 501.132 543.846 497.971 545.117 494.832L546.507 495.395C547.775 492.266 549.085 489.158 550.438 486.073L549.065 485.471C550.427 482.365 551.832 479.281 553.279 476.221L554.635 476.863C556.079 473.81 557.565 470.781 559.093 467.776L557.756 467.096C559.292 464.075 560.869 461.078 562.488 458.105L563.805 458.823C565.421 455.857 567.077 452.916 568.773 450.001L567.477 449.247C569.181 446.318 570.926 443.415 572.711 440.538L573.986 441.329C575.766 438.46 577.585 435.618 579.444 432.803L578.192 431.977C580.059 429.149 581.966 426.348 583.911 423.576L585.139 424.437C587.077 421.674 589.053 418.94 591.067 416.234L589.864 415.339C591.887 412.62 593.948 409.931 596.046 407.271L597.224 408.2C599.314 405.551 601.44 402.932 603.603 400.343L602.452 399.382C604.624 396.781 606.833 394.211 609.076 391.673L610.2 392.667C612.435 390.139 614.705 387.642 617.009 385.178L615.913 384.153C618.227 381.679 620.576 379.237 622.958 376.827L624.025 377.882C626.396 375.483 628.802 373.117 631.241 370.785L630.204 369.701C632.652 367.359 635.133 365.051 637.646 362.778L638.653 363.89C641.154 361.628 643.687 359.4 646.252 357.206L645.277 356.066C647.851 353.865 650.457 351.699 653.093 349.568L654.036 350.735C656.659 348.615 659.312 346.531 661.995 344.484L661.085 343.291C663.777 341.237 666.499 339.219 669.25 337.239L670.126 338.456C672.863 336.485 675.629 334.552 678.423 332.656L677.581 331.415C680.381 329.514 683.21 327.651 686.067 325.827L686.874 327.091C689.717 325.275 692.587 323.497 695.484 321.759L694.712 320.473C697.613 318.732 700.54 317.03 703.494 315.367L704.229 316.674C707.168 315.02 710.131 313.406 713.12 311.831L712.421 310.504C715.415 308.927 718.434 307.39 721.477 305.894L722.139 307.24C725.163 305.753 728.211 304.307 731.282 302.901L730.658 301.537C733.736 300.129 736.838 298.762 739.962 297.436L740.548 298.817C743.648 297.502 746.77 296.229 749.914 294.997L749.367 293.601C752.52 292.366 755.694 291.173 758.89 290.023L759.398 291.435C762.565 290.295 765.752 289.198 768.959 288.144L768.491 286.719C771.706 285.663 774.94 284.65 778.194 283.68L778.622 285.118C781.849 284.156 785.095 283.238 788.359 282.363L787.971 280.914C791.237 280.04 794.521 279.209 797.822 278.422L798.17 279.881C801.447 279.101 804.742 278.364 808.054 277.672L807.747 276.203C811.053 275.512 814.375 274.866 817.714 274.264L817.98 275.74C821.298 275.142 824.633 274.589 827.982 274.081L827.757 272.597C831.092 272.092 834.442 271.63 837.807 271.214L837.991 272.703C841.335 272.29 844.694 271.921 848.066 271.598L847.923 270.105C851.282 269.784 854.654 269.507 858.039 269.277L858.141 270.773C861.5 270.544 864.871 270.361 868.255 270.223L868.194 268.724C871.567 268.587 874.952 268.495 878.349 268.448L878.369 269.948C880.06 269.925 881.755 269.914 883.452 269.914C885.149 269.914 886.843 269.925 888.534 269.948L888.555 268.448C891.951 268.495 895.336 268.587 898.71 268.724L898.649 270.223C902.032 270.361 905.404 270.544 908.762 270.773L908.864 269.277C912.249 269.507 915.622 269.784 918.981 270.105L918.838 271.598C922.21 271.921 925.568 272.29 928.913 272.703L929.097 271.214C932.461 271.63 935.811 272.092 939.146 272.597L938.921 274.081C942.271 274.589 945.605 275.142 948.924 275.74L949.19 274.264C952.528 274.866 955.85 275.512 959.156 276.203L958.849 277.672C962.161 278.364 965.456 279.101 968.734 279.881L969.081 278.422C972.383 279.209 975.666 280.04 978.932 280.914L978.544 282.363C981.808 283.238 985.054 284.156 988.281 285.118L988.71 283.68C991.963 284.65 995.198 285.663 998.412 286.719L997.944 288.144C1001.15 289.198 1004.34 290.295 1007.51 291.435L1008.01 290.023C1011.21 291.173 1014.38 292.366 1017.54 293.601L1016.99 294.997C1020.13 296.229 1023.26 297.502 1026.36 298.817L1026.94 297.436C1030.07 298.761 1033.17 300.129 1036.25 301.537L1035.62 302.901C1038.69 304.306 1041.74 305.753 1044.76 307.24L1045.43 305.894C1048.47 307.39 1051.49 308.927 1054.48 310.504L1053.78 311.831C1056.77 313.406 1059.74 315.02 1062.67 316.674L1063.41 315.367C1066.36 317.03 1069.29 318.732 1072.19 320.473L1071.42 321.759C1074.32 323.497 1077.19 325.275 1080.03 327.091L1080.84 325.827C1083.69 327.651 1086.52 329.514 1089.32 331.414L1088.48 332.656C1091.27 334.552 1094.04 336.485 1096.78 338.456L1097.65 337.239C1100.4 339.219 1103.13 341.237 1105.82 343.291L1104.91 344.484C1107.59 346.531 1110.24 348.615 1112.87 350.735L1113.81 349.568C1116.45 351.699 1119.05 353.865 1121.63 356.066L1120.65 357.206C1123.22 359.4 1125.75 361.628 1128.25 363.89L1129.26 362.778C1131.77 365.051 1134.25 367.359 1136.7 369.701L1135.66 370.785C1138.1 373.117 1140.51 375.483 1142.88 377.882L1143.95 376.827C1146.33 379.237 1148.68 381.679 1150.99 384.153L1149.89 385.178C1152.2 387.642 1154.47 390.139 1156.7 392.667L1157.83 391.673C1160.07 394.211 1162.28 396.781 1164.45 399.382L1163.3 400.343C1165.46 402.932 1167.59 405.551 1169.68 408.2L1170.86 407.271C1172.96 409.931 1175.02 412.62 1177.04 415.339L1175.84 416.234C1177.85 418.94 1179.83 421.674 1181.76 424.437L1182.99 423.576C1184.94 426.348 1186.84 429.149 1188.71 431.977L1187.46 432.803C1189.32 435.618 1191.14 438.46 1192.92 441.329L1194.19 440.538C1195.98 443.415 1197.72 446.318 1199.43 449.247L1198.13 450.001C1199.83 452.916 1201.48 455.857 1203.1 458.823L1204.42 458.105C1206.03 461.077 1207.61 464.075 1209.15 467.096L1207.81 467.776C1209.34 470.781 1210.82 473.81 1212.27 476.863L1213.62 476.221C1215.07 479.281 1216.48 482.364 1217.84 485.471L1216.47 486.073C1217.82 489.158 1219.13 492.266 1220.4 495.395L1221.79 494.832C1223.06 497.971 1224.28 501.132 1225.47 504.314L1224.06 504.837C1225.24 507.991 1226.37 511.167 1227.45 514.363L1228.87 513.88C1229.96 517.085 1231.01 520.31 1232.01 523.555L1230.57 523.997C1231.56 527.214 1232.51 530.45 1233.41 533.705L1234.86 533.305C1235.76 536.564 1236.62 539.842 1237.43 543.137L1235.97 543.496C1236.78 546.767 1237.54 550.055 1238.25 553.36L1239.72 553.043C1240.43 556.345 1241.1 559.664 1241.72 562.999L1240.25 563.274C1240.86 566.588 1241.44 569.918 1241.96 573.263L1243.44 573.03C1243.97 576.364 1244.44 579.713 1244.87 583.076L1243.38 583.266C1243.81 586.609 1244.19 589.966 1244.53 593.337L1246.02 593.189C1246.35 596.547 1246.64 599.918 1246.87 603.301L1245.38 603.407C1245.61 606.765 1245.8 610.136 1245.95 613.519L1247.45 613.456Z" stroke="white" stroke-width="3" stroke-dasharray="10 10"/>
<path opacity="0.2" d="M1130.99 613.416C1131.2 616.792 1131.34 620.186 1131.41 623.597L1129.91 623.628C1129.95 625.319 1129.96 627.014 1129.96 628.713C1129.96 630.412 1129.95 632.107 1129.91 633.797L1131.41 633.828C1131.34 637.239 1131.2 640.634 1130.99 644.009L1129.49 643.916C1129.28 647.299 1129 650.662 1128.65 654.006L1130.15 654.162C1129.79 657.557 1129.37 660.931 1128.88 664.284L1127.39 664.066C1126.9 667.42 1126.34 670.753 1125.71 674.061L1127.18 674.342C1126.54 677.691 1125.84 681.016 1125.06 684.316L1123.6 683.974C1122.83 687.271 1121.99 690.542 1121.08 693.786L1122.53 694.19C1121.61 697.47 1120.63 700.723 1119.58 703.947L1118.15 703.483C1117.11 706.7 1115.99 709.888 1114.82 713.046L1116.22 713.57C1115.03 716.761 1113.78 719.921 1112.46 723.048L1111.08 722.465C1109.76 725.583 1108.38 728.668 1106.94 731.719L1108.3 732.359C1106.85 735.437 1105.33 738.48 1103.75 741.486L1102.42 740.789C1100.85 743.784 1099.22 746.742 1097.53 749.663L1098.83 750.414C1097.13 753.358 1095.36 756.263 1093.54 759.129L1092.27 758.324C1090.46 761.176 1088.59 763.988 1086.66 766.759L1087.89 767.616C1085.95 770.407 1083.95 773.156 1081.89 775.862L1080.7 774.954C1078.66 777.646 1076.56 780.294 1074.4 782.897L1075.56 783.853C1073.39 786.473 1071.18 789.048 1068.9 791.576L1067.79 790.573C1065.53 793.086 1063.22 795.552 1060.86 797.97L1061.93 799.018C1059.56 801.45 1057.14 803.834 1054.67 806.167L1053.64 805.077C1051.18 807.395 1048.68 809.663 1046.13 811.88L1047.11 813.012C1044.55 815.241 1041.93 817.418 1039.28 819.542L1038.34 818.371C1035.7 820.48 1033.02 822.536 1030.3 824.537L1031.19 825.746C1028.45 827.757 1025.67 829.713 1022.85 831.613L1022.01 830.368C1019.21 832.253 1016.37 834.082 1013.49 835.854L1014.28 837.131C1011.38 838.91 1008.45 840.632 1005.48 842.294L1004.75 840.986C1001.81 842.634 998.827 844.224 995.81 845.755L996.489 847.092C993.462 848.628 990.4 850.103 987.303 851.517L986.68 850.153C983.612 851.554 980.51 852.894 977.375 854.173L977.942 855.562C974.8 856.843 971.625 858.062 968.42 859.218L967.911 857.807C964.741 858.95 961.541 860.031 958.312 861.048L958.762 862.478C955.53 863.496 952.268 864.45 948.98 865.339L948.589 863.891C945.337 864.769 942.059 865.584 938.755 866.333L939.087 867.796C935.782 868.545 932.453 869.228 929.099 869.845L928.828 868.37C925.515 868.98 922.179 869.524 918.821 870.001L919.032 871.486C915.677 871.962 912.3 872.373 908.902 872.715L908.752 871.223C905.407 871.56 902.042 871.831 898.659 872.035L898.749 873.532C895.373 873.735 891.979 873.871 888.568 873.94L888.538 872.44C886.847 872.474 885.151 872.491 883.452 872.491C881.753 872.491 880.058 872.474 878.367 872.44L878.337 873.94C874.925 873.871 871.531 873.735 868.155 873.532L868.245 872.035C864.862 871.831 861.497 871.56 858.152 871.223L858.002 872.715C854.604 872.373 851.227 871.962 847.872 871.486L848.083 870.001C844.725 869.524 841.389 868.98 838.077 868.37L837.805 869.845C834.452 869.228 831.122 868.545 827.817 867.796L828.149 866.333C824.845 865.584 821.567 864.769 818.316 863.891L817.924 865.339C814.636 864.45 811.374 863.496 808.142 862.478L808.592 861.048C805.363 860.031 802.163 858.95 798.993 857.807L798.484 859.218C795.279 858.062 792.104 856.843 788.962 855.562L789.529 854.173C786.394 852.894 783.292 851.554 780.224 850.153L779.601 851.517C776.504 850.103 773.442 848.628 770.415 847.092L771.094 845.755C768.077 844.224 765.096 842.634 762.153 840.986L761.42 842.294C758.451 840.632 755.52 838.91 752.629 837.132L753.415 835.854C750.535 834.082 747.695 832.253 744.895 830.368L744.058 831.613C741.236 829.713 738.455 827.757 735.718 825.746L736.606 824.537C733.881 822.536 731.199 820.48 728.562 818.371L727.626 819.542C724.969 817.418 722.359 815.241 719.795 813.012L720.779 811.88C718.228 809.663 715.724 807.395 713.268 805.077L712.238 806.167C709.766 803.834 707.343 801.45 704.969 799.018L706.043 797.97C703.683 795.552 701.374 793.086 699.116 790.573L698 791.576C695.729 789.048 693.509 786.473 691.343 783.853L692.499 782.897C690.347 780.294 688.249 777.646 686.205 774.954L685.01 775.862C682.956 773.156 680.957 770.407 679.014 767.616L680.245 766.759C678.317 763.988 676.445 761.176 674.631 758.324L673.365 759.129C671.543 756.263 669.778 753.358 668.074 750.414L669.372 749.663C667.681 746.742 666.05 743.784 664.479 740.789L663.151 741.486C661.574 738.479 660.058 735.437 658.605 732.359L659.962 731.719C658.522 728.668 657.143 725.583 655.829 722.465L654.447 723.048C653.128 719.921 651.873 716.761 650.683 713.57L652.089 713.046C650.912 709.888 649.798 706.7 648.751 703.482L647.325 703.947C646.275 700.723 645.292 697.47 644.375 694.19L645.82 693.786C644.913 690.542 644.073 687.271 643.3 683.974L641.84 684.316C641.067 681.016 640.361 677.691 639.724 674.342L641.197 674.061C640.568 670.753 640.006 667.42 639.513 664.066L638.029 664.284C637.537 660.931 637.113 657.557 636.759 654.161L638.251 654.006C637.902 650.662 637.622 647.299 637.411 643.916L635.914 644.009C635.704 640.633 635.563 637.239 635.493 633.828L636.992 633.797C636.958 632.106 636.94 630.412 636.94 628.713C636.94 627.014 636.958 625.319 636.992 623.628L635.493 623.597C635.563 620.186 635.704 616.792 635.914 613.416L637.411 613.509C637.622 610.127 637.902 606.763 638.251 603.419L636.759 603.264C637.113 599.869 637.537 596.494 638.029 593.142L639.513 593.36C640.006 590.005 640.568 586.673 641.197 583.364L639.724 583.084C640.361 579.734 641.067 576.409 641.84 573.109L643.3 573.452C644.073 570.155 644.913 566.883 645.82 563.639L644.375 563.236C645.292 559.955 646.275 556.702 647.325 553.479L648.751 553.943C649.798 550.725 650.912 547.537 652.089 544.379L650.683 543.855C651.873 540.664 653.128 537.505 654.447 534.378L655.829 534.96C657.143 531.843 658.522 528.758 659.962 525.707L658.605 525.066C660.058 521.989 661.574 518.946 663.151 515.939L664.479 516.636C666.05 513.641 667.681 510.683 669.372 507.763L668.074 507.011C669.778 504.067 671.543 501.162 673.365 498.297L674.631 499.102C676.445 496.249 678.317 493.437 680.245 490.666L679.014 489.809C680.957 487.019 682.956 484.27 685.011 481.564L686.205 482.471C688.249 479.78 690.347 477.132 692.499 474.528L691.343 473.573C693.509 470.953 695.729 468.378 698 465.85L699.116 466.852C701.374 464.339 703.683 461.873 706.043 459.455L704.969 458.407C707.343 455.975 709.766 453.592 712.238 451.258L713.268 452.349C715.724 450.031 718.228 447.762 720.779 445.545L719.795 444.413C722.359 442.184 724.969 440.007 727.626 437.883L728.562 439.055C731.199 436.946 733.881 434.89 736.606 432.888L735.718 431.679C738.455 429.669 741.236 427.713 744.058 425.813L744.895 427.057C747.695 425.173 750.535 423.343 753.415 421.572L752.629 420.294C755.52 418.515 758.451 416.794 761.42 415.131L762.153 416.44C765.096 414.792 768.077 413.201 771.094 411.671L770.415 410.333C773.442 408.798 776.504 407.322 779.601 405.908L780.224 407.273C783.292 405.872 786.394 404.531 789.529 403.253L788.962 401.864C792.104 400.582 795.279 399.363 798.484 398.207L798.993 399.618C802.163 398.475 805.363 397.394 808.592 396.378L808.142 394.947C811.374 393.929 814.636 392.975 817.924 392.087L818.316 393.535C821.567 392.656 824.845 391.842 828.149 391.093L827.817 389.63C831.122 388.881 834.452 388.197 837.805 387.58L838.077 389.055C841.389 388.446 844.725 387.902 848.083 387.425L847.872 385.94C851.227 385.463 854.604 385.053 858.002 384.71L858.152 386.203C861.497 385.865 864.862 385.594 868.245 385.391L868.155 383.893C871.531 383.69 874.925 383.554 878.337 383.486L878.367 384.985C880.058 384.952 881.753 384.935 883.452 384.935C885.151 384.935 886.847 384.952 888.538 384.985L888.568 383.486C891.979 383.554 895.373 383.69 898.749 383.893L898.659 385.391C902.042 385.594 905.407 385.865 908.752 386.203L908.902 384.71C912.3 385.053 915.677 385.463 919.032 385.94L918.821 387.425C922.179 387.902 925.515 388.446 928.828 389.055L929.099 387.58C932.453 388.197 935.782 388.881 939.087 389.63L938.755 391.093C942.059 391.842 945.337 392.656 948.589 393.535L948.98 392.087C952.268 392.975 955.53 393.929 958.762 394.947L958.312 396.378C961.541 397.394 964.741 398.475 967.911 399.618L968.42 398.207C971.625 399.363 974.8 400.582 977.942 401.864L977.375 403.253C980.51 404.531 983.612 405.872 986.68 407.273L987.303 405.908C990.4 407.322 993.462 408.798 996.489 410.333L995.81 411.671C998.827 413.201 1001.81 414.792 1004.75 416.44L1005.48 415.131C1008.45 416.794 1011.38 418.515 1014.27 420.294L1013.49 421.571C1016.37 423.343 1019.21 425.172 1022.01 427.057L1022.85 425.813C1025.67 427.713 1028.45 429.669 1031.19 431.679L1030.3 432.888C1033.02 434.89 1035.7 436.946 1038.34 439.055L1039.28 437.883C1041.93 440.007 1044.55 442.184 1047.11 444.413L1046.13 445.545C1048.68 447.762 1051.18 450.031 1053.64 452.349L1054.67 451.258C1057.14 453.592 1059.56 455.975 1061.93 458.408L1060.86 459.455C1063.22 461.873 1065.53 464.339 1067.79 466.852L1068.9 465.85C1071.18 468.378 1073.39 470.953 1075.56 473.573L1074.4 474.528C1076.56 477.132 1078.66 479.78 1080.7 482.471L1081.89 481.564C1083.95 484.27 1085.95 487.019 1087.89 489.81L1086.66 490.666C1088.59 493.437 1090.46 496.25 1092.27 499.102L1093.54 498.297C1095.36 501.162 1097.13 504.068 1098.83 507.011L1097.53 507.763C1099.22 510.683 1100.85 513.642 1102.42 516.636L1103.75 515.939C1105.33 518.946 1106.85 521.989 1108.3 525.067L1106.94 525.707C1108.38 528.758 1109.76 531.843 1111.08 534.961L1112.46 534.378C1113.78 537.505 1115.03 540.664 1116.22 543.855L1114.82 544.379C1115.99 547.537 1117.11 550.725 1118.15 553.943L1119.58 553.479C1120.63 556.702 1121.61 559.955 1122.53 563.236L1121.08 563.639C1121.99 566.883 1122.83 570.155 1123.6 573.452L1125.06 573.11C1125.84 576.409 1126.54 579.735 1127.18 583.084L1125.71 583.364C1126.34 586.673 1126.9 590.005 1127.39 593.36L1128.88 593.142C1129.37 596.494 1129.79 599.869 1130.15 603.264L1128.65 603.419C1129 606.763 1129.28 610.127 1129.49 613.509L1130.99 613.416Z" stroke="white" stroke-width="3" stroke-dasharray="10 10"/>
</svg>
