<svg width="1920" height="567" viewBox="0 0 1920 567" fill="none" xmlns="http://www.w3.org/2000/svg">
<g style="mix-blend-mode:multiply">
<path d="M1919.67 60.7608C1890.21 62.5388 1859.84 64.3169 1830.58 58.5289C1825.76 63.5224 1819.91 61.404 1814.21 62.3119C1796.93 64.8843 1781.57 57.2048 1765.49 47.1798C1762.82 45.1626 1760.01 44.0127 1757.16 43.7751C1752.51 44.0021 1748.31 49.4118 1743.72 48.9578C1741.14 48.304 1738.6 47.0337 1736.17 45.1748C1726.25 39.3112 1714.18 45.1748 1707.82 58.7558C1700.69 52.3151 1693.22 47.4924 1685.53 44.3804C1683.66 43.3195 1681.67 43.2543 1679.77 44.1913C1677.98 45.84 1676.47 48.4659 1675.42 51.7574C1668.72 67.646 1654.3 75.9686 1642.4 76.6495C1630.5 77.3305 1618.9 71.3154 1608.11 63.2576C1600.44 57.5075 1592.87 50.6602 1584.6 47.5582C1576.32 44.4561 1566.86 45.6667 1560.43 54.6702C1556.48 39.5382 1541.62 44.2292 1535.47 57.3184C1527.41 39.2734 1511.63 37.3062 1497.91 35.8308C1475.94 33.501 1454.09 28.1412 1432.5 19.7909C1424.4 16.651 1416.36 13.0572 1408.14 11.09C1392.33 7.30698 1379.66 13.6623 1363.74 11.5817C1343.05 8.93357 1322.28 0.232666 1301.53 0.724457C1290.72 0.951438 1277.43 -2.11277 1266.97 2.8808C1251.42 10.4468 1237.81 27.1678 1221.84 31.7831C1206.48 36.1714 1190.63 28.7945 1175.19 32.3505C1155.88 36.7388 1137.93 57.9992 1118.64 53.3083C1111.73 51.6438 1105.2 46.6124 1098.16 46.3098C1091.11 46.0072 1083.13 52.9678 1082.8 64.3169C1048.13 41.4296 1007.93 62.4254 971.653 47.4825C962.477 43.6995 949.999 39.9165 945.891 53.7245C940.305 47.7095 935.313 52.9301 928.614 54.5567C916.078 57.6588 903.313 60.9121 892.14 70.3318C883.617 77.4817 872.349 88.0364 865.265 77.4062C845.666 86.2962 821.401 95.1863 801.782 103.887C799.561 104.724 797.388 105.991 795.294 107.67C792.914 109.789 790.898 112.891 788.517 115.009C784.256 118.792 779.111 119.095 774.773 122.575C770.434 126.056 767.094 132.562 763.504 137.896C750.547 156.812 732.06 161.465 714.649 163.545C697.238 165.626 683.743 166.345 668.385 179.737C661.302 185.903 653.355 194.869 646.041 189.535C643.925 187.648 641.896 185.408 639.975 182.839C632.085 173.835 621.757 173.457 612.101 172.927C589.353 171.717 566.029 167.517 545.719 150.986C536.563 143.42 526.043 133.054 517.616 142.512C499.264 163.053 477.821 148.905 457.415 163.47C454.462 166.084 451.372 168.05 448.201 169.333C444.785 169.884 441.347 169.309 438.027 167.631C423.63 161.832 409.419 154.367 395.468 145.273C390.659 141.5 385.568 139.315 380.399 138.804C371.684 138.804 362.584 148.678 354.848 142.133C352.316 139.556 350.009 136.197 348.014 132.184C338.416 115.728 318.663 105.703 305.455 113.269C302.025 115.781 298.525 117.916 294.974 119.662C289.925 121.365 284.723 119.322 279.617 117.695C264.228 112.35 248.495 112.107 233.065 116.976C227.575 118.565 221.97 120.759 216.518 118.981C207.764 116.182 200.758 103.849 191.87 102.828C179.872 101.315 167.643 120.419 157.085 111.113C154.206 108.578 151.595 104.039 148.37 104.682C145.855 105.211 144.089 108.729 141.997 111.037C132.533 121.44 115.582 113.08 104.16 113.836C97.9408 114.253 89.6287 118.149 87.018 108.956C86.0581 105.552 86.4805 101.39 85.5974 98.0235C84.0809 92.0464 79.3777 90.1171 75.4041 90.6467C71.4304 91.1763 67.4759 93.2948 63.5406 92.2355C57.1865 90.5332 51.6387 80.6217 45.3998 83.2698C43.4136 84.3518 41.5458 86.1473 39.8904 88.566C27.6622 104.265 12.2474 120.003 0 135.702V445.909H1919.67V60.7608Z" fill="#F2F2F2"/>
</g>
<path d="M1919.67 60.7567C1889.94 62.5395 1860.18 60.5304 1830.58 54.7417C1825.43 59.3871 1819.86 61.9594 1814.21 62.3078C1796.98 64.8959 1779.66 61.0454 1763.16 50.9587C1760.5 48.9453 1757.68 47.7956 1754.83 47.554C1750.17 47.781 1745.96 53.1907 1741.39 52.7368C1738.81 52.0781 1736.28 50.808 1733.85 48.9537C1723.94 43.0901 1711.87 48.9537 1705.5 62.5347C1698.37 56.0885 1690.89 51.2655 1683.21 48.1593C1681.33 47.0984 1679.34 47.0332 1677.45 47.9702C1675.67 49.6399 1674.16 52.2611 1673.09 55.5363C1666.41 71.4249 1654.28 79.7475 1642.38 80.4284C1630.48 81.1094 1618.88 75.0943 1608.09 67.0365C1600.41 61.2864 1592.85 54.4391 1584.58 51.3371C1576.3 48.235 1566.84 49.4456 1560.41 58.4491C1556.45 43.3171 1541.6 40.442 1535.45 53.5313C1527.39 35.4863 1511.61 33.519 1497.88 32.0437C1475.92 29.7138 1454.07 24.3541 1432.48 16.0037C1424.38 12.8638 1416.34 9.27003 1408.12 7.30286C1392.3 3.51985 1379.63 9.87521 1363.72 7.79456C1343.03 5.27255 1322.29 4.17549 1301.5 4.50336C1290.7 4.73034 1279.73 5.44914 1269.37 10.4427C1253.82 18.0087 1240.19 34.7297 1224.24 39.345C1208.88 43.7333 1193.01 36.3564 1177.57 39.9124C1158.26 44.3007 1140.33 65.5611 1121.04 60.8702C1114.11 59.2057 1107.6 54.1744 1100.55 53.8717C1093.51 53.5691 1085.52 60.5297 1085.2 71.8788C1050.53 48.9916 1010.33 69.9873 974.03 55.0444C964.854 51.2614 952.376 47.4784 948.287 61.2864C942.701 55.2714 935.368 56.709 928.745 58.3356C916.21 61.4377 903.444 64.691 892.272 74.1107C883.749 81.2606 872.48 91.8153 865.397 81.1851L806.598 107.666C804.371 108.508 802.192 109.775 800.09 111.449C797.71 113.568 795.694 116.67 793.314 118.788C789.052 122.571 783.927 122.874 779.569 126.354C775.211 129.835 771.89 136.341 768.301 141.675C755.343 160.59 736.857 165.244 719.445 167.324C702.034 169.405 683.874 170.124 668.517 183.515C661.433 189.682 653.486 198.648 646.172 193.313C644.057 191.427 642.027 189.187 640.106 186.618C632.216 177.614 621.889 177.236 612.233 176.706C589.485 175.496 566.161 171.296 545.851 154.765C536.694 147.199 526.175 136.833 517.747 146.291C499.395 166.832 473.269 152.684 452.882 167.249C449.924 169.869 446.827 171.835 443.649 173.112C440.239 173.663 436.807 173.088 433.494 171.41C419.037 165.587 404.768 158.084 390.762 148.939C385.953 145.169 380.862 142.984 375.693 142.47C366.978 142.47 357.878 152.343 350.142 145.799C347.61 143.221 345.303 139.863 343.308 135.85C333.71 119.393 318.621 109.368 305.414 116.934C301.983 119.447 298.484 121.581 294.933 123.328C289.884 125.03 284.682 122.987 279.576 121.361C262.65 116.06 245.414 115.843 228.455 120.717C222.965 122.306 217.36 124.5 211.889 122.722C203.154 119.923 196.147 107.59 187.259 106.569C175.262 105.056 163.033 124.16 152.456 114.854C149.596 112.319 146.985 107.78 143.76 108.423C141.245 108.952 139.46 112.47 137.368 114.778C127.923 125.181 115.637 109.255 104.215 110.012C97.9955 110.428 89.6834 114.324 87.0727 105.131C86.1128 101.727 86.5351 97.5655 85.6521 94.1986C84.1356 88.2215 79.4324 86.2921 75.4587 86.8217C71.4851 87.3513 67.5306 89.4698 63.5953 88.4105C57.2412 86.7082 51.6934 76.7967 45.4545 79.4448C43.4683 80.5269 41.6005 82.3225 39.9451 84.7411C27.7169 100.441 12.3021 116.178 0.0546875 131.877V566.999H1919.67V60.7567Z" fill="url(#paint0_linear_31_42)"/>
<path d="M0.015625 131.877C12.263 116.178 27.6778 100.441 39.9061 84.741C41.5614 82.3224 43.4292 80.5268 45.4155 79.4447C51.6543 76.7966 57.2022 97.0736 63.5562 98.776C67.4915 99.873 71.446 97.7167 75.4197 97.187C79.3933 96.6574 84.0965 98.5868 85.613 104.564C86.4961 108.044 86.0738 101.727 87.0336 105.131C89.6443 114.324 97.9564 110.428 104.176 110.012C115.694 109.255 127.884 135.547 137.329 125.144C139.421 122.836 141.168 108.952 143.721 108.423C146.946 107.779 149.48 122.685 152.417 125.219C162.994 134.525 175.223 105.056 187.22 106.569C196.108 107.704 203.115 130.288 211.85 133.05C217.321 134.752 222.926 132.634 228.416 131.045C245.309 126.165 262.778 115.913 279.633 121.398C284.681 123.025 289.884 125.181 294.99 123.366C298.541 121.619 302.04 119.484 305.471 116.972C318.678 109.406 333.767 129.834 343.365 146.291C345.359 150.304 347.667 153.662 350.199 156.24C357.878 162.785 367.034 142.697 375.75 142.545C380.919 143.059 386.01 145.245 390.819 149.014C404.825 158.159 419.094 165.663 433.55 171.485C436.864 173.163 440.296 173.739 443.705 173.188C446.884 171.911 449.98 169.944 452.939 167.324C473.326 152.76 499.452 177.273 517.804 156.732C522.112 152.255 526.879 149.759 531.746 149.432C536.613 149.104 541.455 150.953 545.908 154.84C566.256 171.372 589.542 175.571 612.29 176.782C621.888 177.311 632.273 177.69 640.163 186.693C642.084 189.262 644.114 191.503 646.229 193.389C653.543 198.723 661.49 200.123 668.574 193.957C683.931 180.565 692.474 177.614 709.885 175.495C727.296 173.377 746.205 171.107 759.182 152.154C762.829 146.82 770.277 140.503 774.539 132.142C777.668 126.127 783.676 133.466 787.976 129.721C790.357 127.602 793.735 126.732 796.077 124.614C798.093 122.798 804.293 124.954 806.52 123.971C826.12 115.043 835.814 108.498 855.414 99.6082C862.401 110.276 883.729 91.4369 892.252 84.287C903.52 74.8673 916.286 71.6518 928.725 68.5119C935.348 66.8852 942.681 65.4855 948.267 71.4626C952.356 57.6168 964.565 64.2371 974.01 65.2207C988.388 66.7339 993.706 81.185 1000.06 77.1371C1026.32 60.4162 1030.49 90.4155 1045 78.0829C1057.25 67.6796 1076.83 73.1271 1091.55 82.8116C1091.82 71.4626 1099.84 64.5397 1106.91 64.8423C1113.97 65.145 1114.09 69.3819 1121.02 71.0464C1140.21 75.7374 1158.24 54.4769 1177.55 50.0886C1192.91 46.5326 1208.86 53.8715 1224.22 49.5211C1240.17 44.9058 1253.8 28.1093 1269.35 20.6189C1279.72 15.6254 1290.68 14.9066 1301.48 14.6796C1322.23 14.2256 1342.97 15.3353 1363.7 18.0087C1379.61 20.0515 1392.28 13.6581 1408.1 17.479C1416.32 19.484 1424.36 23.0401 1432.46 26.18C1454.05 34.5243 1475.9 39.8965 1497.86 42.2578C1511.59 43.6953 1527.37 35.297 1535.43 53.342C1541.52 40.2527 1556.38 43.2036 1560.39 58.2599C1566.82 49.2564 1576.28 48.0458 1584.56 51.1479C1592.83 54.2499 1600.36 61.0972 1608.07 66.8473C1618.86 74.9052 1630.51 91.3234 1642.36 90.6046C1654.2 89.8859 1666.35 81.601 1673.07 65.7124C1674.3 62.7994 1675.45 49.1428 1677.43 47.7809C1679.32 46.8439 1681.31 46.9092 1683.19 47.9701C1690.98 51.1479 1698.55 66.3555 1705.48 72.711C1711.85 59.0543 1723.92 53.2663 1733.83 59.13C1736.26 60.9842 1738.79 62.2544 1741.37 62.913C1746.02 63.3669 1750.22 57.9572 1754.81 57.7303C1757.69 57.7303 1764.41 56.1414 1767.17 57.7303C1783.36 67.7552 1796.93 64.6154 1814.19 62.043C1819.94 61.1729 1830.02 65.2585 1834.86 60.2271C1864.12 66.0529 1890.18 62.3077 1919.65 60.5297C1889.92 62.3125 1860.16 60.3033 1830.56 54.5147C1825.41 59.1601 1819.84 61.7324 1814.19 62.0807C1796.96 64.6689 1779.64 60.8183 1763.14 50.7317C1760.48 48.7183 1757.66 47.5685 1754.81 47.327C1750.15 47.554 1745.94 52.9637 1741.37 52.5097C1738.79 51.8511 1736.26 50.5809 1733.83 48.7267C1723.92 42.863 1711.85 48.7267 1705.48 62.3077C1698.35 55.8614 1690.87 51.0385 1683.19 47.9323C1681.31 46.8713 1679.32 46.806 1677.43 47.7431C1675.65 49.4127 1674.14 52.0339 1673.07 55.3091C1666.39 71.1977 1654.26 79.5204 1642.36 80.2014C1630.46 80.8823 1618.86 74.8673 1608.07 66.8095C1600.39 61.0593 1592.83 54.2121 1584.56 51.11C1576.28 48.0079 1566.82 49.2185 1560.39 58.2221C1556.43 43.09 1541.58 40.2149 1535.43 53.3041C1527.37 35.2591 1511.59 33.292 1497.86 31.8166C1475.9 29.4868 1454.05 24.127 1432.46 15.7767C1424.36 12.6368 1416.32 9.04286 1408.1 7.0757C1392.28 3.29269 1379.61 9.64816 1363.7 7.56751C1343.01 5.0455 1322.27 3.94844 1301.48 4.27631C1290.68 4.50329 1279.72 5.22209 1269.35 10.2157C1253.8 17.7817 1240.17 34.5025 1224.22 39.1178C1208.86 43.5061 1192.99 36.1293 1177.55 39.6853C1158.24 44.0736 1140.31 65.3341 1121.02 60.6431C1114.09 58.9786 1107.58 53.9473 1100.53 53.6447C1093.49 53.342 1085.5 60.3027 1085.18 71.6517C1050.51 48.7645 1010.31 69.7603 974.01 54.8174C964.834 51.0344 952.356 47.2513 948.267 61.0593C942.681 55.0443 935.348 56.4819 928.725 58.1086C916.19 61.2107 903.424 64.464 892.252 73.8837C883.729 81.0336 872.46 91.5883 865.377 80.958L806.578 107.439C804.351 108.281 802.172 109.548 800.07 111.222C797.69 113.341 795.674 116.443 793.294 118.561C789.032 122.344 783.907 122.647 779.549 126.127C775.191 129.607 771.87 136.114 768.281 141.448C755.323 160.363 736.837 165.016 719.425 167.097C702.014 169.178 683.854 169.897 668.497 183.288C661.414 189.455 653.466 198.42 646.152 193.086C644.037 191.2 642.007 188.96 640.086 186.391C632.196 177.387 621.869 177.009 612.213 176.479C589.465 175.268 566.141 171.069 545.831 154.538C536.674 146.971 526.155 136.606 517.727 146.064C499.375 166.605 473.249 152.457 452.862 167.022C449.904 169.642 446.807 171.608 443.629 172.885C440.219 173.436 436.787 172.861 433.474 171.183C419.017 165.36 404.749 157.857 390.742 148.712C385.933 144.942 380.842 142.756 375.673 142.243C366.958 142.243 357.858 152.116 350.122 145.572C347.59 142.994 345.283 139.635 343.288 135.622C333.69 119.166 318.602 109.141 305.394 116.707C301.963 119.219 298.464 121.354 294.913 123.101C289.864 124.803 284.662 122.76 279.556 121.134C262.63 115.912 245.401 115.772 228.455 120.717C222.964 122.306 217.359 124.5 211.888 122.722C203.153 119.923 196.147 107.59 187.259 106.569C175.261 105.056 163.033 124.16 152.455 114.854C149.595 112.319 146.984 107.779 143.759 108.423C141.245 108.952 139.459 112.47 137.367 114.778C127.922 125.181 115.636 109.255 104.214 110.012C97.9948 110.428 89.6827 114.324 87.072 105.131C86.1122 101.727 86.5345 97.5654 85.6514 94.1985C84.1349 88.2214 79.4318 86.292 75.4581 86.8216C71.4844 87.3512 67.5299 89.4697 63.5946 88.4104C57.2405 86.7081 51.6927 76.7966 45.4538 79.4447C43.4676 80.5268 41.5998 82.3224 39.9445 84.741C27.6779 100.289 12.263 116.178 0.015625 131.877Z" fill="#F2F2F2"/>
<defs>
<linearGradient id="paint0_linear_31_42" x1="81" y1="155.277" x2="1921.32" y2="177.589" gradientUnits="userSpaceOnUse">
<stop stop-color="#2CAA7C"/>
<stop offset="1" stop-color="#1F5E7D"/>
</linearGradient>
</defs>
</svg>
