<svg width="288" height="57" viewBox="0 0 288 57" fill="none" xmlns="http://www.w3.org/2000/svg">
<rect x="58" y="57" width="58" height="57" rx="28.5" transform="rotate(-180 58 57)" fill="#F5DD3C"/>
<path d="M9.63289 39.0191L9.11626 16.6251L14.2989 16.5055L14.7181 34.6767L25.9471 34.4176L26.0445 38.6405L9.63289 39.0191ZM26.122 38.6387L35.5867 16.0144L40.7054 15.8963L51.2353 38.0594L45.7968 38.1848L37.1508 18.603L39.1983 18.5558L31.4326 38.5162L26.122 38.6387ZM31.002 33.7249L32.2868 29.7582L43.8038 29.4925L45.3022 33.395L31.002 33.7249Z" fill="#11263A"/>
<path d="M80.6243 40.0593L80.401 17.6604L85.5847 17.6087L85.766 35.7838L96.9974 35.6718L97.0395 39.8956L80.6243 40.0593ZM104.57 26.4439L115.354 26.3363L115.394 30.3681L104.61 30.4757L104.57 26.4439ZM105.046 35.6556L117.238 35.534L117.279 39.6938L99.9359 39.8667L99.7125 17.4678L116.64 17.2991L116.681 21.4589L104.906 21.5763L105.046 35.6556ZM118.46 39.682L128.22 17.1836L133.34 17.1326L143.578 39.4316L138.139 39.4858L129.75 19.7925L131.798 19.7721L123.771 39.6291L118.46 39.682ZM123.404 34.8325L124.74 30.883L136.26 30.7681L137.707 34.6899L123.404 34.8325ZM145.902 39.4084L145.679 17.0095L155.375 16.9128C157.38 16.8929 159.111 17.2063 160.568 17.8531C162.025 18.4786 163.154 19.3954 163.956 20.6035C164.757 21.8115 165.166 23.2582 165.183 24.9434C165.2 26.6074 164.819 28.0512 164.042 29.275C163.265 30.4775 162.154 31.406 160.71 32.0604C159.266 32.7148 157.541 33.052 155.536 33.072L148.72 33.14L151.001 30.8451L151.086 39.3567L145.902 39.4084ZM160.142 39.2664L154.461 31.1947L159.997 31.1395L165.741 39.2106L160.142 39.2664ZM151.007 31.4211L148.679 29.0122L155.207 28.9471C156.806 28.9312 157.998 28.5779 158.78 27.8874C159.562 27.1756 159.947 26.2117 159.935 24.9958C159.923 23.7585 159.519 22.8025 158.723 22.1277C157.927 21.453 156.729 21.1236 155.129 21.1395L148.601 21.2046L150.88 18.7177L151.007 31.4211ZM169.432 39.1738L169.209 16.7749L173.497 16.7321L186.873 32.7276L184.793 32.7483L184.632 16.6211L189.752 16.5701L189.975 38.969L185.72 39.0114L172.311 23.0163L174.391 22.9955L174.552 39.1227L169.432 39.1738ZM192.331 38.9455L202.091 16.447L207.211 16.396L217.45 38.695L212.01 38.7493L203.621 19.0559L205.669 19.0355L197.643 38.8925L192.331 38.9455ZM197.275 34.0959L198.612 30.1464L210.131 30.0316L211.578 33.9533L197.275 34.0959ZM219.774 38.6718L219.55 16.273L229.246 16.1763C231.251 16.1563 232.982 16.4697 234.439 17.1165C235.896 17.742 237.026 18.6588 237.827 19.8669C238.628 21.075 239.038 22.5216 239.054 24.2069C239.071 25.8708 238.691 27.3147 237.914 28.5385C237.136 29.7623 236.026 30.7121 234.582 31.3878C233.138 32.0423 231.413 32.3795 229.408 32.3995L222.592 32.4674L224.873 30.1086L224.957 38.6202L219.774 38.6718ZM224.878 30.6845L222.55 28.2436L229.078 28.1786C230.677 28.1626 231.869 27.8094 232.651 27.1189C233.434 26.4284 233.819 25.4751 233.807 24.2592C233.794 23.0219 233.39 22.0659 232.594 21.3912C231.798 20.7164 230.6 20.387 229 20.4029L222.472 20.468L224.752 17.9812L224.878 30.6845ZM242.898 38.4413L242.674 16.0424L252.37 15.9457C254.375 15.9257 256.106 16.2391 257.563 16.886C259.02 17.5115 260.15 18.4283 260.951 19.6363C261.752 20.8444 262.161 22.2911 262.178 23.9763C262.195 25.6402 261.815 27.0841 261.037 28.3079C260.26 29.5317 259.15 30.4815 257.706 31.1573C256.261 31.8117 254.537 32.1489 252.531 32.1689L245.716 32.2369L247.996 29.878L248.081 38.3896L242.898 38.4413ZM248.002 30.454L245.674 28.0131L252.201 27.948C253.801 27.932 254.992 27.5788 255.775 26.8883C256.557 26.1978 256.943 25.2446 256.931 24.0286C256.918 22.7914 256.514 21.8354 255.718 21.1606C254.922 20.4858 253.724 20.1564 252.124 20.1724L245.596 20.2375L247.875 17.7506L248.002 30.454Z" fill="url(#paint0_linear_30_40)"/>
<defs>
<linearGradient id="paint0_linear_30_40" x1="68.1489" y1="22.1828" x2="256.819" y2="38.3025" gradientUnits="userSpaceOnUse">
<stop stop-color="#00FF94"/>
<stop offset="1" stop-color="#F5DD3C"/>
</linearGradient>
</defs>
</svg>
