<svg width="1920" height="347" viewBox="0 0 1920 347" fill="none" xmlns="http://www.w3.org/2000/svg">
<path opacity="0.4" d="M1920 333.826L1813.33 327.338C1706.67 320.361 1493.33 308.119 1280 255.479C1066.67 202.84 853.333 112.251 640 98.785C426.667 85.3191 213.333 151.424 106.667 183.62L0 216.306V373H106.667C213.333 373 426.667 373 640 373C853.333 373 1066.67 373 1280 373C1493.33 373 1706.67 373 1813.33 373H1920V333.826Z" fill="white"/>
<path d="M0 320.059L106.667 311.291C213.333 301.86 426.667 285.316 640 214.177C853.333 143.037 1066.67 20.6108 1280 2.41231C1493.33 -15.7862 1706.67 73.5519 1813.33 117.063L1920 161.236V373H1813.33C1706.67 373 1493.33 373 1280 373C1066.67 373 853.333 373 640 373C426.667 373 213.333 373 106.667 373H0V320.059Z" fill="white"/>
</svg>
