<svg xmlns="http://www.w3.org/2000/svg" xmlns:xlink="http://www.w3.org/1999/xlink"><symbol id="icons8-github" viewBox="0 0 50 50">    <path d="M17.791,46.836C18.502,46.53,19,45.823,19,45v-5.4c0-0.197,0.016-0.402,0.041-0.61C19.027,38.994,19.014,38.997,19,39 c0,0-3,0-3.6,0c-1.5,0-2.8-0.6-3.4-1.8c-0.7-1.3-1-3.5-2.8-4.7C8.9,32.3,9.1,32,9.7,32c0.6,0.1,1.9,0.9,2.7,2c0.9,1.1,1.8,2,3.4,2 c2.487,0,3.82-0.125,4.622-0.555C21.356,34.056,22.649,33,24,33v-0.025c-5.668-0.182-9.289-2.066-10.975-4.975 c-3.665,0.042-6.856,0.405-8.677,0.707c-0.058-0.327-0.108-0.656-0.151-0.987c1.797-0.296,4.843-0.647,8.345-0.714 c-0.112-0.276-0.209-0.559-0.291-0.849c-3.511-0.178-6.541-0.039-8.187,0.097c-0.02-0.332-0.047-0.663-0.051-0.999 c1.649-0.135,4.597-0.27,8.018-0.111c-0.079-0.5-0.13-1.011-0.13-1.543c0-1.7,0.6-3.5,1.7-5c-0.5-1.7-1.2-5.3,0.2-6.6 c2.7,0,4.6,1.3,5.5,2.1C21,13.4,22.9,13,25,13s4,0.4,5.6,1.1c0.9-0.8,2.8-2.1,5.5-2.1c1.5,1.4,0.7,5,0.2,6.6c1.1,1.5,1.7,3.2,1.6,5 c0,0.484-0.045,0.951-0.11,1.409c3.499-0.172,6.527-0.034,8.204,0.102c-0.002,0.337-0.033,0.666-0.051,0.999 c-1.671-0.138-4.775-0.28-8.359-0.089c-0.089,0.336-0.197,0.663-0.325,0.98c3.546,0.046,6.665,0.389,8.548,0.689 c-0.043,0.332-0.093,0.661-0.151,0.987c-1.912-0.306-5.171-0.664-8.879-0.682C35.112,30.873,31.557,32.75,26,32.969V33 c2.6,0,5,3.9,5,6.6V45c0,0.823,0.498,1.53,1.209,1.836C41.37,43.804,48,35.164,48,25C48,12.318,37.683,2,25,2S2,12.318,2,25 C2,35.164,8.63,43.804,17.791,46.836z"/></symbol><symbol id="telegram" viewBox="0 0 89 93"><g fill="none">
<rect width="89" height="93" rx="44.5" fill="#32A9E6"/>
<path d="M20.1853 46.4173C20.1853 46.4173 40.96 37.3438 48.1651 34.1489C50.927 32.8709 60.2936 28.7814 60.2936 28.7814C60.2936 28.7814 64.6167 26.9923 64.2564 31.3373C64.1363 33.1265 63.1757 39.3885 62.215 46.1617C60.774 55.7464 59.2129 66.2257 59.2129 66.2257C59.2129 66.2257 58.9727 69.165 56.9313 69.6762C54.8898 70.1874 51.5274 67.8871 50.927 67.3759C50.4467 66.9925 41.9207 61.2417 38.7984 58.4301C37.9579 57.6634 36.9972 56.1298 38.9185 54.3407C43.2416 50.1234 48.4052 44.8837 51.5274 41.561C52.9685 40.0275 54.4095 36.4492 48.4052 40.7943C39.8792 47.0563 31.4733 52.9349 31.4733 52.9349C31.4733 52.9349 29.5519 54.2129 25.9494 53.0627C22.3468 51.9125 18.1438 50.379 18.1438 50.379C18.1438 50.379 15.2618 48.462 20.1853 46.4173Z" fill="white"/>
</g></symbol><symbol id="viber" viewBox="0 0 90 93"><g fill="none">
<rect width="90" height="93" rx="45" fill="#665CAC"/>
<path d="M63.363 25.7046C62.1174 24.5261 57.0976 20.7579 45.9175 20.7036C45.9175 20.7036 32.7265 19.8817 26.2961 25.976C22.717 29.6744 21.4564 35.0864 21.3289 41.8009C21.1938 48.5155 21.0212 61.084 32.7566 64.4955H32.7641L32.7566 69.6981C32.7566 69.6981 32.6815 71.8071 34.0246 72.2335C35.6454 72.753 36.5983 71.1558 38.1515 69.4268C38.9994 68.4808 40.1774 67.0852 41.0628 66.023C49.084 66.7208 55.2593 65.1235 55.9571 64.8909C57.5779 64.3482 66.747 63.1309 68.2327 50.5624C69.7709 37.6063 67.4824 29.403 63.363 25.7046ZM64.7211 49.632C63.4605 60.1303 56.0246 60.7971 54.659 61.2468C54.0738 61.4406 48.6563 62.8363 41.8432 62.371C41.8432 62.371 36.7634 68.6979 35.1802 70.3494C34.9326 70.6053 34.6399 70.7138 34.4448 70.6596C34.1747 70.5898 34.0997 70.2564 34.0997 69.7679C34.1072 69.0701 34.1447 61.1227 34.1447 61.1227C34.1372 61.1227 34.1372 61.1227 34.1447 61.1227C24.2252 58.2772 24.8029 47.5696 24.9155 41.9638C25.028 36.358 26.0485 31.7679 29.0724 28.682C34.5124 23.5957 45.715 24.3555 45.715 24.3555C55.1768 24.402 59.7088 27.3406 60.7593 28.3253C64.2409 31.419 66.0192 38.8081 64.7211 49.632Z" fill="white"/>
<path d="M50.5151 41.523C50.3951 38.9566 49.1345 37.6152 46.7334 37.4834" stroke="white" stroke-width="0.844187" stroke-linecap="round" stroke-linejoin="round"/>
<path d="M53.7577 42.6504C53.8103 40.2623 53.1275 38.2696 51.7018 36.6647C50.2762 35.0597 48.3028 34.168 45.7666 33.9819" stroke="white" stroke-width="0.844187" stroke-linecap="round" stroke-linejoin="round"/>
<path d="M57.079 43.9869C57.049 39.8388 55.8484 36.5823 53.4848 34.1942C51.1213 31.8139 48.1724 30.6043 44.6533 30.5811" stroke="white" stroke-width="0.844187" stroke-linecap="round" stroke-linejoin="round"/>
<path d="M46.8606 50.2706C46.8606 50.2706 47.7535 50.3482 48.2262 49.7357L49.1566 48.5261C49.6069 47.9213 50.6948 47.5414 51.7603 48.1539C52.3531 48.5028 53.4186 49.1774 54.0789 49.6814C54.7842 50.2164 56.2324 51.4647 56.2324 51.4647C56.9227 52.0617 57.0802 52.9456 56.615 53.876C56.615 53.8838 56.6075 53.8915 56.6075 53.8915C56.1273 54.7677 55.482 55.5973 54.6641 56.3649C54.6566 56.3727 54.6566 56.3727 54.6491 56.3804C53.9813 56.9542 53.321 57.2876 52.6757 57.3651C52.6007 57.3806 52.5032 57.3884 52.3906 57.3806C52.1055 57.3806 51.8279 57.3419 51.5502 57.2488L51.5277 57.2178C50.5298 56.9309 48.8715 56.2021 46.1028 54.6281C44.3019 53.6047 42.8088 52.5579 41.5482 51.519C40.8804 50.9762 40.1976 50.3559 39.4998 49.6426C39.4772 49.6194 39.4547 49.5961 39.4322 49.5728C39.4097 49.5496 39.3872 49.5263 39.3647 49.503C39.3422 49.4798 39.3197 49.4565 39.2972 49.4333C39.2747 49.41 39.2521 49.3867 39.2296 49.3635C38.5393 48.6424 37.939 47.9368 37.4138 47.2468C36.4083 45.9442 35.3954 44.3935 34.4049 42.5404C32.8817 39.6793 32.1764 37.9658 31.8988 36.9346L31.8688 36.9113C31.7787 36.6244 31.7337 36.3376 31.7412 36.0429C31.7337 35.9266 31.7412 35.8258 31.7562 35.7483C31.8313 35.0815 32.1539 34.3992 32.7092 33.7091C32.7167 33.7014 32.7167 33.7014 32.7242 33.6936C33.467 32.8485 34.2624 32.1817 35.1178 31.6854C35.1253 31.6854 35.1328 31.6777 35.1328 31.6777C36.0332 31.197 36.8886 31.3598 37.4663 32.0731C37.4738 32.0809 38.6744 33.5696 39.1921 34.2984C39.6798 34.9884 40.3401 36.0817 40.6703 36.6942C41.2631 37.7952 40.8954 38.9195 40.3101 39.3847L39.1396 40.3461C38.5468 40.8424 38.6219 41.7573 38.6219 41.7573C38.6219 41.7573 40.3626 48.5571 46.8606 50.2706Z" fill="white"/>
</g></symbol><symbol id="whatsapp" viewBox="0 0 89 93"><g fill="none">
<rect width="89" height="93" rx="44.5" fill="#01D363"/>
<path d="M69.5704 45.1807C69.5704 59.2765 58.5511 70.7031 44.9557 70.7031C40.6397 70.7031 36.585 69.5504 33.0573 67.5274L19.4296 72.0526L23.8726 58.359C21.6313 54.5133 20.3405 50.0027 20.3405 45.1807C20.3405 31.0848 31.3609 19.6582 44.9557 19.6582C58.5522 19.6582 69.5704 31.0848 69.5704 45.1807ZM44.9557 23.7228C33.5437 23.7228 24.2609 33.3489 24.2609 45.1807C24.2609 49.8758 25.7256 54.2239 28.2031 57.7611L25.6175 65.7303L33.5704 63.0891C36.8379 65.331 40.7523 66.6385 44.9563 66.6385C56.3667 66.6385 65.6511 57.0136 65.6511 45.1818C65.6511 33.35 56.3672 23.7228 44.9557 23.7228ZM57.3856 51.0587C57.2335 50.7985 56.8319 50.6413 56.2291 50.3287C55.6251 50.0161 52.6579 48.5019 52.1064 48.2941C51.5531 48.0856 51.1498 47.9809 50.7481 48.6067C50.3464 49.2331 49.1898 50.6413 48.8372 51.0587C48.4851 51.4773 48.1335 51.5297 47.5296 51.2165C46.9268 50.9039 44.983 50.2425 42.6782 48.1118C40.8848 46.4538 39.6737 44.407 39.3216 43.78C38.97 43.1542 39.2848 42.8159 39.5862 42.5045C39.8581 42.2239 40.1901 41.7739 40.4915 41.4089C40.794 41.0433 40.8943 40.783 41.0943 40.365C41.2966 39.9476 41.1957 39.5826 41.0442 39.2688C40.8938 38.9562 39.6859 35.8778 39.1834 34.6249C38.6809 33.3733 38.1789 33.5817 37.8263 33.5817C37.4747 33.5817 37.0719 33.5293 36.6697 33.5293C36.2674 33.5293 35.6134 33.6859 35.0602 34.3117C34.5075 34.9381 32.9492 36.4518 32.9492 39.5296C32.9492 42.6081 35.1103 45.5824 35.4128 45.9992C35.7142 46.416 39.5856 52.9385 45.7195 55.4436C51.854 57.9474 51.854 57.112 52.9604 57.0072C54.0658 56.903 56.5293 55.4942 57.0341 54.0341C57.5355 52.5718 57.5355 51.3195 57.3856 51.0587Z" fill="white"/>
</g></symbol></svg>